<svg width="813" height="813" viewBox="0 0 813 813" fill="none" xmlns="http://www.w3.org/2000/svg">
<g id="Frame 1">
<g clip-path="url(#clip0)">
<g id="undraw_tweetstorm_49e8 (1) 1">
<path id="Vector" d="M611.73 434.7L399.86 383.67V783L611.73 727.54V434.7Z" fill="#E0E0E0"/>
<path id="Vector_2" opacity="0.1" d="M611.73 434.7L399.86 383.67V783L611.73 727.54V434.7Z" fill="black"/>
<path id="Vector_3" d="M187.99 434.7L399.86 383.67V783L187.99 728.65V434.7Z" fill="#E0E0E0"/>
<path id="Vector_4" opacity="0.17" d="M187.99 432.93L399.86 381.91V783L187.99 728.65V432.93Z" fill="black"/>
<path id="Vector_5" d="M398.09 385.44L509.68 292.71L721.54 347.07L609.96 436.46L398.09 385.44Z" fill="#E0E0E0"/>
<path id="Vector_6" d="M81.05 349.94L189.76 436.46L401.62 385.44L294.03 294.48L81.05 349.94Z" fill="#E0E0E0"/>
<path id="Vector_7" opacity="0.05" d="M79.29 348.18L190.64 436.46L402.51 385.44L292.26 292.71L79.29 348.18Z" fill="black"/>
<path id="Vector_8" d="M187.99 434.7V728.65L399.86 783L402.72 491.27L187.99 434.7Z" fill="#E0E0E0"/>
<path id="Vector_9" d="M611.73 727.54L399.86 783V491.27L611.73 434.7V727.54Z" fill="#E0E0E0"/>
<path id="Vector_10" opacity="0.07" d="M611.73 727.54L399.86 783V491.27L611.73 434.7V727.54Z" fill="black"/>
<path id="Vector_11" opacity="0.07" d="M527.42 629.92V726.43L611.73 703.13V606.63L527.42 629.92Z" fill="black"/>
<path id="Vector_12" opacity="0.1" d="M185.22 587.22L303.91 617.17L399.31 539.52V491.82L187.44 438.58L185.22 587.22Z" fill="black"/>
<path id="Vector_13" opacity="0.1" d="M613.39 587.22L494.7 617.17L399.31 539.52V491.82L611.17 438.58L613.39 587.22Z" fill="black"/>
<path id="Vector_14" d="M187.99 434.7L79.29 524.55L291.15 577.79L399.86 491.27L187.99 434.7Z" fill="#E0E0E0"/>
<path id="Vector_15" d="M611.73 434.7L721.54 524.55L510.78 577.79L399.86 491.27L611.73 434.7Z" fill="#E0E0E0"/>
<path id="Vector_16" opacity="0.07" d="M611.73 434.7L721.54 524.55L510.78 577.79L399.86 491.27L611.73 434.7Z" fill="black"/>
<g id="birds">
<path id="Vector_17" d="M439.269 176.344L446.242 172.992C446.242 172.992 441.841 181.487 440.773 182.23C441.04 183.726 441.419 185.201 441.906 186.641C443.326 250.818 384.432 237.411 384.432 237.411C403.503 232.991 403.123 224.783 403.123 224.783C391.683 225.99 387.635 219.361 387.635 219.361C388.759 219.64 389.947 219.49 390.966 218.938C391.985 218.387 392.761 217.474 393.141 216.38C380.439 216.38 379.084 204.31 379.084 204.31C381.591 205.545 385.017 205.452 387.004 205.238C385.268 203.957 370.662 193.446 375.658 184.811C375.658 184.811 387.663 197.402 409.603 193.168L410.996 192.499C410.475 191.505 410.096 190.442 409.873 189.342C409.352 187.315 409.236 185.206 409.531 183.134C409.826 181.062 410.527 179.068 411.593 177.267C412.658 175.466 414.068 173.892 415.742 172.636C417.417 171.38 419.322 170.466 421.349 169.946C431.637 167.309 435.351 172.62 435.351 172.62L441.572 166.325C441.414 166.39 442.565 173.929 439.269 176.344Z" fill="#00ACED"/>
<path id="Vector_18" d="M120.312 225.229L127.897 223.715C127.897 223.715 121.528 230.846 120.312 231.301C120.199 232.816 120.199 234.336 120.312 235.851C105.744 298.367 52.03 270.753 52.03 270.753C71.6027 271.208 73.274 263.167 73.274 263.167C61.8907 261.496 59.6158 254.059 59.6158 254.059C60.6345 254.609 61.8219 254.759 62.9454 254.479C64.0688 254.199 65.047 253.509 65.6882 252.545C53.3671 249.37 55.0383 237.411 55.0383 237.411C57.1646 239.268 60.4979 239.992 62.4663 240.298C61.1014 238.627 49.5695 224.82 56.5518 217.689C56.5518 217.689 65.0475 232.861 87.3593 234.226L88.8728 233.92C88.6133 232.825 88.5101 231.7 88.5664 230.577C88.5676 228.483 88.9815 226.41 89.7845 224.476C90.5875 222.542 91.7638 220.786 93.2462 219.307C94.7285 217.828 96.4878 216.656 98.4235 215.857C100.359 215.059 102.433 214.65 104.527 214.653C115.149 214.653 117.424 220.726 117.424 220.726L125.01 216.176C124.833 216.167 124.081 223.753 120.312 225.229Z" fill="#00ACED"/>
<path id="Vector_19" d="M794.623 90.3276L807 87.8485C807 87.8485 796.601 99.4825 794.623 100.225C794.438 102.698 794.438 105.181 794.623 107.653C770.854 209.649 683.204 164.589 683.204 164.589C715.135 165.332 717.864 152.212 717.864 152.212C699.294 149.491 695.58 137.356 695.58 137.356C697.246 138.233 699.177 138.465 701.003 138.007C702.829 137.55 704.422 136.435 705.478 134.877C685.423 129.677 688.153 110.123 688.153 110.123C691.616 113.094 697.066 114.329 700.279 114.831C698.05 112.11 679.239 89.5755 690.622 77.9414C690.622 77.9414 704.485 102.695 740.873 104.924L743.352 104.431C742.931 102.647 742.766 100.812 742.86 98.9812C742.86 92.0861 745.599 85.4734 750.474 80.5979C755.35 75.7223 761.962 72.9832 768.857 72.9832C786.183 72.9832 789.897 82.881 789.897 82.881L802.274 75.4531C802.051 75.4716 800.816 87.8113 794.623 90.3276Z" fill="#00ACED"/>
<path id="Vector_20" d="M592.341 69.9192L597.466 68.8979C597.466 68.8979 593.158 73.7168 592.341 74.0232C592.264 75.0462 592.264 76.0735 592.341 77.0965C582.499 119.343 546.204 100.68 546.204 100.68C559.435 100.987 560.558 95.555 560.558 95.555C552.87 94.4315 551.329 89.3991 551.329 89.3991C552.019 89.7646 552.819 89.8626 553.577 89.6741C554.334 89.4856 554.995 89.0239 555.433 88.3777C547.132 86.2236 548.256 78.1643 548.256 78.1643C549.736 79.2337 551.465 79.9051 553.279 80.1141C552.351 78.9906 544.56 69.6592 549.277 64.8403C549.277 64.8403 555.015 75.0538 570.094 75.9823L571.115 75.778C570.941 75.0394 570.872 74.2797 570.911 73.5218C570.909 72.1062 571.186 70.7041 571.726 69.3958C572.266 68.0874 573.059 66.8985 574.06 65.8971C575.06 64.8957 576.249 64.1016 577.556 63.5602C578.864 63.0188 580.266 62.7407 581.682 62.7419C588.859 62.7419 590.4 66.8459 590.4 66.8459L595.526 63.7726C595.414 63.7633 594.904 68.8979 592.341 69.9192Z" fill="#00ACED"/>
<path id="Vector_21" opacity="0.3" d="M359.595 274.978L364.72 273.956C364.72 273.956 360.412 278.775 359.595 279.082C359.518 280.105 359.518 281.132 359.595 282.155C349.752 324.402 313.458 305.739 313.458 305.739C326.689 306.045 327.812 300.614 327.812 300.614C320.124 299.49 318.583 294.458 318.583 294.458C319.272 294.823 320.073 294.921 320.83 294.733C321.588 294.544 322.249 294.082 322.687 293.436C314.386 291.282 315.51 283.223 315.51 283.223C316.989 284.292 318.719 284.964 320.533 285.173C319.604 284.049 311.814 274.718 316.531 269.899C316.531 269.899 322.269 280.112 337.348 281.041L338.369 280.837C338.195 280.098 338.126 279.338 338.165 278.58C338.165 275.726 339.299 272.989 341.317 270.971C343.335 268.953 346.072 267.819 348.926 267.819C356.103 267.819 357.645 271.923 357.645 271.923L362.77 268.85C362.649 268.868 362.157 273.956 359.595 274.978Z" fill="#535461"/>
<path id="Vector_22" opacity="0.3" d="M559.491 179.63L564.616 178.609C564.616 178.609 560.354 183.447 559.491 183.725C559.414 184.748 559.414 185.775 559.491 186.798C549.649 229.045 513.354 210.382 513.354 210.382C526.585 210.689 527.708 205.257 527.708 205.257C520.02 204.133 518.479 199.101 518.479 199.101C519.169 199.467 519.969 199.564 520.726 199.376C521.484 199.187 522.145 198.726 522.583 198.08C514.282 195.925 515.406 187.866 515.406 187.866C516.885 188.936 518.615 189.607 520.429 189.816C519.5 188.693 511.71 179.361 516.427 174.542C516.427 174.542 522.165 184.756 537.244 185.684L538.265 185.48C538.091 184.741 538.022 183.982 538.061 183.224C538.061 180.37 539.195 177.632 541.213 175.614C543.231 173.596 545.968 172.462 548.822 172.462C556 172.462 557.541 176.566 557.541 176.566L562.666 173.493C562.61 173.474 562.09 178.6 559.491 179.63Z" fill="#00ACED"/>
<path id="Vector_23" d="M462.741 351.282L473.4 349.146C473.4 349.146 464.44 359.174 462.741 359.805C462.582 361.935 462.582 364.073 462.741 366.203C442.268 454.066 366.772 415.255 366.772 415.255C394.283 415.896 396.632 404.596 396.632 404.596C380.634 402.247 377.44 391.801 377.44 391.801C378.876 392.558 380.54 392.759 382.115 392.365C383.689 391.971 385.063 391.01 385.973 389.666C368.703 385.19 371.043 368.31 371.043 368.31C374.033 370.873 378.722 371.931 381.489 372.358C379.567 370.009 363.364 350.604 373.132 340.585C373.132 340.585 385.073 361.941 416.428 363.798L418.563 363.371C418.2 361.836 418.057 360.257 418.136 358.682C418.135 355.74 418.713 352.828 419.839 350.11C420.964 347.392 422.613 344.923 424.693 342.843C426.773 340.763 429.242 339.114 431.96 337.989C434.678 336.864 437.59 336.285 440.532 336.286C455.462 336.286 458.656 344.819 458.656 344.819L469.352 338.505C469.139 338.505 468.071 349.155 462.741 351.282Z" fill="#1DA1F2"/>
<path id="Vector_24" d="M387.273 87.3471L392.361 86.3257C392.361 86.3257 388.053 91.1446 387.236 91.451C387.159 92.4741 387.159 93.5014 387.236 94.5244C377.394 136.771 341.099 118.108 341.099 118.108C354.33 118.415 355.453 112.983 355.453 112.983C347.765 111.859 346.224 106.827 346.224 106.827C346.914 107.193 347.714 107.29 348.472 107.102C349.229 106.913 349.89 106.452 350.328 105.806C342.027 103.651 343.151 95.5921 343.151 95.5921C344.631 96.6616 346.36 97.333 348.174 97.542C347.245 96.4185 339.455 87.0871 344.172 82.2682C344.172 82.2682 349.91 92.4817 364.989 93.4102L366.01 93.2059C365.836 92.4672 365.767 91.7076 365.806 90.9497C365.804 89.5341 366.081 88.132 366.621 86.8236C367.161 85.5153 367.954 84.3264 368.955 83.325C369.955 82.3236 371.144 81.5295 372.451 80.9881C373.759 80.4467 375.161 80.1686 376.577 80.1698C383.754 80.1698 385.295 84.2738 385.295 84.2738L390.421 81.2004C390.356 81.2004 389.845 86.3257 387.273 87.3471Z" fill="#1DA1F2"/>
<path id="Vector_25" d="M230.404 201.162L235.529 200.141C235.529 200.141 231.221 204.96 230.404 205.266C230.327 206.289 230.327 207.316 230.404 208.34C220.561 250.586 184.267 231.923 184.267 231.923C197.498 232.23 198.621 226.798 198.621 226.798C190.933 225.675 189.392 220.642 189.392 220.642C190.081 221.008 190.882 221.106 191.639 220.917C192.397 220.729 193.058 220.267 193.496 219.621C185.195 217.467 186.319 209.407 186.319 209.407C187.798 210.477 189.528 211.148 191.342 211.357C190.413 210.234 182.623 200.902 187.34 196.083C187.34 196.083 193.078 206.297 208.157 207.225L209.178 207.021C209.004 206.282 208.935 205.523 208.974 204.765C208.974 201.911 210.108 199.174 212.126 197.155C214.144 195.137 216.881 194.004 219.735 194.004C226.912 194.004 228.454 198.107 228.454 198.107L233.579 195.034C233.477 195.006 232.966 200.159 230.404 201.162Z" fill="#1DA1F2"/>
<path id="Vector_26" opacity="0.3" d="M187.34 127.337L192.465 126.316C192.465 126.316 188.157 131.135 187.34 131.441C187.263 132.464 187.263 133.492 187.34 134.515C177.498 176.761 141.203 158.099 141.203 158.099C154.434 158.405 155.557 152.973 155.557 152.973C147.869 151.85 146.328 146.817 146.328 146.817C147.018 147.183 147.818 147.281 148.576 147.092C149.333 146.904 149.994 146.442 150.432 145.796C142.131 143.642 143.255 135.582 143.255 135.582C144.735 136.652 146.464 137.323 148.278 137.532C147.35 136.409 139.559 127.077 144.276 122.259C144.276 122.259 150.014 132.472 165.093 133.401L166.114 133.196C165.94 132.458 165.871 131.698 165.91 130.94C165.91 128.086 167.044 125.349 169.062 123.331C171.08 121.313 173.817 120.179 176.671 120.179C183.849 120.179 185.39 124.283 185.39 124.283L190.515 121.209C190.413 121.182 189.949 126.316 187.34 127.337Z" fill="#1DA1F2"/>
<path id="Vector_27" d="M367.793 440.055L372.919 439.034C372.919 439.034 368.61 443.853 367.793 444.159C367.717 445.182 367.717 446.209 367.793 447.232C357.951 489.479 321.656 470.816 321.656 470.816C334.887 471.123 336.011 465.691 336.011 465.691C328.323 464.567 326.782 459.535 326.782 459.535C327.471 459.901 328.272 459.998 329.029 459.81C329.787 459.621 330.448 459.16 330.886 458.514C322.585 456.36 323.708 448.3 323.708 448.3C325.188 449.37 326.918 450.041 328.731 450.25C327.803 449.127 320.013 439.795 324.73 434.976C324.73 434.976 330.468 445.19 345.546 446.118L346.568 445.914C346.394 445.175 346.325 444.416 346.364 443.658C346.364 440.804 347.497 438.066 349.515 436.048C351.534 434.03 354.271 432.896 357.125 432.896C364.302 432.896 365.843 437 365.843 437L370.969 433.927C370.876 433.908 370.356 439.034 367.793 440.055Z" fill="#535461"/>
<path id="Vector_28" d="M666.983 217.522L677.41 215.433C677.41 215.433 668.626 225.266 666.955 225.888C666.799 227.977 666.799 230.075 666.955 232.165C646.871 318.339 572.833 280.27 572.833 280.27C599.843 280.939 602.146 269.797 602.146 269.797C586.454 267.494 583.325 257.243 583.325 257.243C584.733 257.975 586.36 258.167 587.899 257.782C589.438 257.397 590.784 256.463 591.682 255.154C574.737 250.763 577.039 234.235 577.039 234.235C579.964 236.742 584.569 237.791 587.253 238.209C585.396 235.907 569.472 216.854 579.091 207.04C579.091 207.04 590.809 227.959 621.551 229.834L623.64 229.416C623.281 227.897 623.14 226.333 623.223 224.774C623.223 218.95 625.536 213.365 629.654 209.247C633.772 205.128 639.358 202.815 645.182 202.815C659.824 202.815 662.962 211.171 662.962 211.171L673.417 204.895C673.259 204.969 672.21 215.433 666.983 217.522Z" fill="#535461"/>
<path id="Vector_29" d="M251.731 301.598L262.186 299.509C262.186 299.509 253.402 309.341 251.731 309.963C251.575 312.053 251.575 314.151 251.731 316.24C231.648 402.414 157.609 364.346 157.609 364.346C184.592 364.977 186.894 353.891 186.894 353.891C171.203 351.588 168.074 341.337 168.074 341.337C169.481 342.069 171.108 342.261 172.648 341.876C174.187 341.491 175.532 340.556 176.43 339.248C159.485 334.856 161.788 318.329 161.788 318.329C164.712 320.836 169.318 321.885 172.001 322.303C170.144 320.001 154.22 300.948 163.84 291.134C163.84 291.134 175.557 312.053 206.3 313.928L208.389 313.51C208.029 311.991 207.889 310.427 207.971 308.868C207.971 303.044 210.285 297.459 214.403 293.341C218.521 289.222 224.106 286.909 229.93 286.909C244.572 286.909 247.711 295.265 247.711 295.265L258.166 288.989C258.008 289.044 256.959 299.509 251.731 301.598Z" fill="#535461"/>
</g>
</g>
</g>
</g>
<defs>
<clipPath id="clip0">
<rect width="813" height="813" fill="white"/>
</clipPath>
</defs>
</svg>
