<svg width="1024" height="886" viewBox="0 0 1024 886" fill="none" xmlns="http://www.w3.org/2000/svg">
<g id="undraw_tweetstorm_49e8 (1) 1">
<g id="Box">
<g id="Vector" filter="url(#filter0_d)">
<path d="M554.901 374.974L348.803 323.673V725.127L554.901 669.372V374.974Z" fill="#E0E0E0"/>
</g>
<g id="Vector_2" opacity="0.1" filter="url(#filter1_d)">
<path d="M554.901 374.974L348.803 323.673V725.127L554.901 669.372V374.974Z" fill="black"/>
</g>
<g id="Vector_3" filter="url(#filter2_d)">
<path d="M142.704 374.974L348.803 323.673V725.127L142.704 670.488V374.974Z" fill="#E0E0E0"/>
</g>
<g id="Vector_4" opacity="0.17" filter="url(#filter3_d)">
<path d="M142.704 373.195L348.803 321.903V725.127L142.704 670.488V373.195Z" fill="black"/>
</g>
<g id="Vector_5" filter="url(#filter4_d)">
<path d="M347.081 325.452L455.631 232.229L661.72 286.878L553.18 376.743L347.081 325.452Z" fill="#E0E0E0"/>
</g>
<g id="Vector_6" filter="url(#filter5_d)">
<path d="M38.6769 289.763L144.426 376.743L350.515 325.452L245.855 234.008L38.6769 289.763Z" fill="#E0E0E0"/>
</g>
<g id="Vector_7" opacity="0.05" filter="url(#filter6_d)">
<path d="M36.9649 287.994L145.282 376.743L351.38 325.452L244.134 232.229L36.9649 287.994Z" fill="black"/>
</g>
<g id="Vector_8" filter="url(#filter7_d)">
<path d="M142.704 374.974V670.488L348.803 725.127L351.585 431.845L142.704 374.974Z" fill="#E0E0E0"/>
</g>
<g id="Vector_9" filter="url(#filter8_d)">
<path d="M554.901 669.372L348.803 725.127V431.845L554.901 374.974V669.372Z" fill="#E0E0E0"/>
</g>
<g id="Vector_10" opacity="0.07" filter="url(#filter9_d)">
<path d="M554.901 669.372L348.803 725.127V431.845L554.901 374.974V669.372Z" fill="black"/>
</g>
<g id="Vector_11" opacity="0.07" filter="url(#filter10_d)">
<path d="M472.888 571.232V668.256L554.901 644.832V547.819L472.888 571.232Z" fill="black"/>
</g>
<g id="Vector_12" opacity="0.1" filter="url(#filter11_d)">
<path d="M140.009 528.305L255.466 558.415L348.268 480.352V432.398L142.169 378.875L140.009 528.305Z" fill="black"/>
</g>
<g id="Vector_13" opacity="0.1" filter="url(#filter12_d)">
<path d="M556.516 528.305L441.059 558.415L348.268 480.352V432.398L554.357 378.875L556.516 528.305Z" fill="black"/>
</g>
<g id="Vector_14" filter="url(#filter13_d)">
<path d="M142.704 374.974L36.9649 465.302L243.054 518.825L348.803 431.845L142.704 374.974Z" fill="#E0E0E0"/>
</g>
<g id="Vector_15" filter="url(#filter14_d)">
<path d="M554.901 374.974L661.72 465.302L456.701 518.825L348.803 431.845L554.901 374.974Z" fill="#E0E0E0"/>
</g>
<g id="Vector_16" opacity="0.07" filter="url(#filter15_d)">
<path d="M554.901 374.974L661.72 465.302L456.701 518.825L348.803 431.845L554.901 374.974Z" fill="black"/>
</g>
</g>
<g id="links">
<line id="Line 25" x1="359.882" y1="407.118" x2="229.118" y2="290.118" stroke="#959595" stroke-width="3" stroke-linecap="round" stroke-linejoin="round"/>
<line id="Line 26" x1="354.412" y1="396.593" x2="345.473" y2="248.595" stroke="#959595" stroke-width="3" stroke-linecap="round" stroke-linejoin="round"/>
<line id="Line 27" x1="366.151" y1="395.884" x2="408.884" y2="358.849" stroke="#959595" stroke-width="3" stroke-linecap="round" stroke-linejoin="round"/>
<line id="Line 28" x1="452.292" y1="338.899" x2="621.899" y2="210.708" stroke="#959595" stroke-width="3" stroke-linecap="round" stroke-linejoin="round"/>
<line id="Line 29" x1="233.432" y1="279.571" x2="227.571" y2="153.568" stroke="#959595" stroke-width="3" stroke-linecap="round" stroke-linejoin="round"/>
<line id="Line 32" x1="420.158" y1="148.052" x2="196.052" y2="86.8422" stroke="#959595" stroke-width="3" stroke-linecap="round" stroke-linejoin="round"/>
<line id="Line 30" x1="225.918" y1="286.408" x2="109.408" y2="208.082" stroke="#959595" stroke-width="3" stroke-linecap="round" stroke-linejoin="round"/>
<line id="Line 34" x1="383.039" y1="50.4147" x2="519.415" y2="125.961" stroke="#959595" stroke-width="3" stroke-linecap="round" stroke-linejoin="round"/>
<line id="Line 33" x1="429.964" y1="146.403" x2="372.403" y2="41.0355" stroke="#959595" stroke-width="3" stroke-linecap="round" stroke-linejoin="round"/>
<line id="Line 35" x1="201.264" y1="73.2964" x2="360.296" y2="49.736" stroke="#959595" stroke-width="3" stroke-linecap="round" stroke-linejoin="round"/>
<line id="Line 36" x1="430.649" y1="168.334" x2="443.334" y2="288.351" stroke="#959595" stroke-width="3" stroke-linecap="round" stroke-linejoin="round"/>
<line id="Line 37" x1="543.485" y1="25.5149" x2="542.515" y2="122.515" stroke="#959595" stroke-width="3" stroke-linecap="round" stroke-linejoin="round"/>
<line id="Line 38" x1="555.789" y1="27.8598" x2="692.86" y2="58.2112" stroke="#959595" stroke-width="3" stroke-linecap="round" stroke-linejoin="round"/>
<line id="Line 39" x1="724.259" y1="74.1055" x2="644.105" y2="176.741" stroke="#959595" stroke-width="3" stroke-linecap="round" stroke-linejoin="round"/>
<line id="Line 40" x1="630.949" y1="188.541" x2="554.542" y2="144.051" stroke="#959595" stroke-width="3" stroke-linecap="round" stroke-linejoin="round"/>
<line id="Line 41" x1="366.755" y1="208.893" x2="402.893" y2="163.245" stroke="#959595" stroke-width="3" stroke-linecap="round" stroke-linejoin="round"/>
<line id="Line 31" x1="109.745" y1="200.014" x2="217.014" y2="151.255" stroke="#959595" stroke-width="3" stroke-linecap="round" stroke-linejoin="round"/>
</g>
<g id="birds" filter="url(#filter16_i)">
<g id="Vector_17">
<mask id="path-35-inside-1" fill="white">
<path d="M452.234 123.615L459.708 122.389C459.708 122.389 453.105 129.294 451.892 129.702C451.699 131.216 451.615 132.741 451.642 134.264C433.99 196.336 383.196 166.606 383.196 166.606C402.234 167.815 404.307 159.82 404.307 159.82C393.315 157.707 391.511 150.179 391.511 150.179C392.473 150.769 393.622 150.964 394.732 150.726C395.843 150.488 396.834 149.833 397.511 148.89C385.701 145.257 388.009 133.271 388.009 133.271C389.975 135.175 393.188 136.065 395.099 136.429C393.863 134.701 383.391 120.424 390.588 113.555C390.588 113.555 398.028 129.087 419.679 131.295L421.171 131.051C420.981 129.947 420.943 128.818 421.06 127.697C421.176 125.6 421.691 123.539 422.578 121.633C423.465 119.727 424.706 118.011 426.229 116.586C427.753 115.16 429.529 114.051 431.457 113.323C433.384 112.595 435.426 112.262 437.464 112.342C447.809 112.751 449.692 118.917 449.692 118.917L457.337 114.648C457.171 114.665 456.013 122.239 452.234 123.615Z"/>
</mask>
<path d="M452.234 123.615L459.708 122.389C459.708 122.389 453.105 129.294 451.892 129.702C451.699 131.216 451.615 132.741 451.642 134.264C433.99 196.336 383.196 166.606 383.196 166.606C402.234 167.815 404.307 159.82 404.307 159.82C393.315 157.707 391.511 150.179 391.511 150.179C392.473 150.769 393.622 150.964 394.732 150.726C395.843 150.488 396.834 149.833 397.511 148.89C385.701 145.257 388.009 133.271 388.009 133.271C389.975 135.175 393.188 136.065 395.099 136.429C393.863 134.701 383.391 120.424 390.588 113.555C390.588 113.555 398.028 129.087 419.679 131.295L421.171 131.051C420.981 129.947 420.943 128.818 421.06 127.697C421.176 125.6 421.691 123.539 422.578 121.633C423.465 119.727 424.706 118.011 426.229 116.586C427.753 115.16 429.529 114.051 431.457 113.323C433.384 112.595 435.426 112.262 437.464 112.342C447.809 112.751 449.692 118.917 449.692 118.917L457.337 114.648C457.171 114.665 456.013 122.239 452.234 123.615Z" fill="#00ACED" stroke="#101010" stroke-width="4" mask="url(#path-35-inside-1)"/>
</g>
<g id="Vector_18">
<mask id="path-36-inside-2" fill="white">
<path d="M135.488 163.351L142.867 161.83C142.867 161.83 136.671 168.999 135.488 169.456C135.378 170.978 135.378 172.507 135.488 174.03C121.316 236.878 69.066 209.118 69.066 209.118C88.1055 209.575 89.7313 201.491 89.7313 201.491C78.658 199.811 76.4452 192.334 76.4452 192.334C77.436 192.888 78.5912 193.038 79.684 192.757C80.7768 192.475 81.7284 191.782 82.3521 190.813C70.3666 187.621 71.9924 175.598 71.9924 175.598C74.0607 177.465 77.3032 178.193 79.218 178.501C77.8903 176.821 66.6725 162.941 73.4646 155.772C73.4646 155.772 81.7289 171.024 103.433 172.396L104.905 172.088C104.653 170.988 104.552 169.857 104.607 168.728C104.608 166.623 105.011 164.539 105.792 162.594C106.573 160.65 107.717 158.884 109.159 157.398C110.601 155.911 112.313 154.732 114.196 153.93C116.079 153.127 118.096 152.716 120.133 152.719C130.466 152.719 132.679 158.824 132.679 158.824L140.058 154.25C139.886 154.241 139.155 161.867 135.488 163.351Z"/>
</mask>
<path d="M135.488 163.351L142.867 161.83C142.867 161.83 136.671 168.999 135.488 169.456C135.378 170.978 135.378 172.507 135.488 174.03C121.316 236.878 69.066 209.118 69.066 209.118C88.1055 209.575 89.7313 201.491 89.7313 201.491C78.658 199.811 76.4452 192.334 76.4452 192.334C77.436 192.888 78.5912 193.038 79.684 192.757C80.7768 192.475 81.7284 191.782 82.3521 190.813C70.3666 187.621 71.9924 175.598 71.9924 175.598C74.0607 177.465 77.3032 178.193 79.218 178.501C77.8903 176.821 66.6725 162.941 73.4646 155.772C73.4646 155.772 81.7289 171.024 103.433 172.396L104.905 172.088C104.653 170.988 104.552 169.857 104.607 168.728C104.608 166.623 105.011 164.539 105.792 162.594C106.573 160.65 107.717 158.884 109.159 157.398C110.601 155.911 112.313 154.732 114.196 153.93C116.079 153.127 118.096 152.716 120.133 152.719C130.466 152.719 132.679 158.824 132.679 158.824L140.058 154.25C139.886 154.241 139.155 161.867 135.488 163.351Z" fill="#00ACED" stroke="#101010" stroke-width="4" mask="url(#path-36-inside-2)"/>
</g>
<g id="Vector_19">
<mask id="path-37-inside-3" fill="white">
<path d="M770.385 17.4366L782.424 14.9443C782.424 14.9443 772.308 26.6403 770.385 27.387C770.205 29.8727 770.205 32.3688 770.385 34.8545C747.263 137.392 662 92.0928 662 92.0928C693.061 92.8395 695.717 79.6501 695.717 79.6501C677.653 76.9151 674.04 64.7151 674.04 64.7151C675.66 65.5966 677.538 65.8297 679.315 65.3699C681.091 64.9101 682.641 63.7896 683.668 62.2228C664.159 56.9956 666.814 37.3374 666.814 37.3374C670.183 40.3244 675.485 41.5659 678.61 42.0699C676.442 39.335 658.143 16.6805 669.217 4.98455C669.217 4.98455 682.701 29.8699 718.098 32.1102L720.51 31.6155C720.101 29.8215 719.939 27.9768 720.031 26.1362C720.031 19.2044 722.695 12.5566 727.438 7.65512C732.181 2.75363 738.613 0 745.321 0C762.174 0 765.787 9.95043 765.787 9.95043L777.827 2.48294C777.61 2.50161 776.409 14.907 770.385 17.4366Z"/>
</mask>
<path d="M770.385 17.4366L782.424 14.9443C782.424 14.9443 772.308 26.6403 770.385 27.387C770.205 29.8727 770.205 32.3688 770.385 34.8545C747.263 137.392 662 92.0928 662 92.0928C693.061 92.8395 695.717 79.6501 695.717 79.6501C677.653 76.9151 674.04 64.7151 674.04 64.7151C675.66 65.5966 677.538 65.8297 679.315 65.3699C681.091 64.9101 682.641 63.7896 683.668 62.2228C664.159 56.9956 666.814 37.3374 666.814 37.3374C670.183 40.3244 675.485 41.5659 678.61 42.0699C676.442 39.335 658.143 16.6805 669.217 4.98455C669.217 4.98455 682.701 29.8699 718.098 32.1102L720.51 31.6155C720.101 29.8215 719.939 27.9768 720.031 26.1362C720.031 19.2044 722.695 12.5566 727.438 7.65512C732.181 2.75363 738.613 0 745.321 0C762.174 0 765.787 9.95043 765.787 9.95043L777.827 2.48294C777.61 2.50161 776.409 14.907 770.385 17.4366Z" fill="#00ACED" stroke="#101010" stroke-width="4" mask="url(#path-37-inside-3)"/>
</g>
<g id="Vector_20">
<mask id="path-38-inside-4" fill="white">
<path d="M558.88 7.21546L563.866 6.18868C563.866 6.18868 559.675 11.0332 558.88 11.3412C558.806 12.3697 558.806 13.4025 558.88 14.4309C549.306 56.9022 514 38.1402 514 38.1402C526.871 38.4482 527.964 32.9876 527.964 32.9876C520.485 31.8582 518.986 26.7989 518.986 26.7989C519.657 27.1665 520.435 27.2649 521.172 27.0754C521.909 26.8859 522.552 26.4218 522.978 25.7722C514.903 23.6066 515.996 15.5044 515.996 15.5044C517.436 16.5795 519.118 17.2544 520.882 17.4646C519.979 16.3351 512.401 6.9541 516.99 2.10957C516.99 2.10957 522.571 12.3774 537.239 13.3108L538.233 13.1054C538.064 12.3628 537.997 11.5992 538.034 10.8372C538.032 9.41413 538.301 8.00456 538.827 6.68923C539.352 5.3739 540.124 4.17866 541.097 3.17197C542.07 2.16528 543.226 1.36691 544.499 0.822614C545.771 0.278315 547.135 -0.00122592 548.511 4.04118e-06C555.493 4.04118e-06 556.993 4.12579 556.993 4.12579L561.978 1.03612C561.87 1.02678 561.373 6.18868 558.88 7.21546Z"/>
</mask>
<path d="M558.88 7.21546L563.866 6.18868C563.866 6.18868 559.675 11.0332 558.88 11.3412C558.806 12.3697 558.806 13.4025 558.88 14.4309C549.306 56.9022 514 38.1402 514 38.1402C526.871 38.4482 527.964 32.9876 527.964 32.9876C520.485 31.8582 518.986 26.7989 518.986 26.7989C519.657 27.1665 520.435 27.2649 521.172 27.0754C521.909 26.8859 522.552 26.4218 522.978 25.7722C514.903 23.6066 515.996 15.5044 515.996 15.5044C517.436 16.5795 519.118 17.2544 520.882 17.4646C519.979 16.3351 512.401 6.9541 516.99 2.10957C516.99 2.10957 522.571 12.3774 537.239 13.3108L538.233 13.1054C538.064 12.3628 537.997 11.5992 538.034 10.8372C538.032 9.41413 538.301 8.00456 538.827 6.68923C539.352 5.3739 540.124 4.17866 541.097 3.17197C542.07 2.16528 543.226 1.36691 544.499 0.822614C545.771 0.278315 547.135 -0.00122592 548.511 4.04118e-06C555.493 4.04118e-06 556.993 4.12579 556.993 4.12579L561.978 1.03612C561.87 1.02678 561.373 6.18868 558.88 7.21546Z" fill="#00ACED" stroke="#101010" stroke-width="4" mask="url(#path-38-inside-4)"/>
</g>
<g id="Vector_21">
<mask id="path-39-inside-5" fill="white">
<path d="M370.468 217.258L375.557 217.162C375.557 217.162 370.549 221.156 369.711 221.314C369.45 222.311 369.261 223.326 369.145 224.351C351.947 264.347 320.679 239.43 320.679 239.43C333.275 242.093 335.35 236.925 335.35 236.925C328.206 234.444 327.659 229.195 327.659 229.195C328.251 229.68 328.999 229.919 329.758 229.868C330.517 229.817 331.234 229.478 331.772 228.918C324.231 225.309 326.791 217.544 326.791 217.544C328.009 218.865 329.539 219.837 331.235 220.367C330.554 219.091 324.825 208.48 330.223 204.559C330.223 204.559 333.828 215.676 348.076 219.282L349.091 219.263C349.06 218.502 349.134 217.739 349.311 216.996C349.837 214.176 351.426 211.673 353.728 210.038C356.03 208.404 358.856 207.771 361.585 208.28C368.449 209.56 369.166 213.891 369.166 213.891L374.634 211.768C374.515 211.765 373.107 216.705 370.468 217.258Z"/>
</mask>
<path d="M370.468 217.258L375.557 217.162C375.557 217.162 370.549 221.156 369.711 221.314C369.45 222.311 369.261 223.326 369.145 224.351C351.947 264.347 320.679 239.43 320.679 239.43C333.275 242.093 335.35 236.925 335.35 236.925C328.206 234.444 327.659 229.195 327.659 229.195C328.251 229.68 328.999 229.919 329.758 229.868C330.517 229.817 331.234 229.478 331.772 228.918C324.231 225.309 326.791 217.544 326.791 217.544C328.009 218.865 329.539 219.837 331.235 220.367C330.554 219.091 324.825 208.48 330.223 204.559C330.223 204.559 333.828 215.676 348.076 219.282L349.091 219.263C349.06 218.502 349.134 217.739 349.311 216.996C349.837 214.176 351.426 211.673 353.728 210.038C356.03 208.404 358.856 207.771 361.585 208.28C368.449 209.56 369.166 213.891 369.166 213.891L374.634 211.768C374.515 211.765 373.107 216.705 370.468 217.258Z" fill="#535461" stroke="black" stroke-width="4" mask="url(#path-39-inside-5)"/>
</g>
<g id="Vector_22" opacity="0.3">
<mask id="path-40-inside-6" fill="white">
<path d="M562.703 117.51L567.689 116.483C567.689 116.483 563.543 121.347 562.703 121.627C562.629 122.655 562.629 123.688 562.703 124.716C553.13 167.188 517.823 148.426 517.823 148.426C530.694 148.734 531.787 143.273 531.787 143.273C524.308 142.144 522.809 137.084 522.809 137.084C523.48 137.452 524.258 137.55 524.995 137.361C525.732 137.171 526.375 136.707 526.801 136.058C518.726 133.892 519.819 125.79 519.819 125.79C521.259 126.865 522.941 127.54 524.706 127.75C523.802 126.621 516.225 117.24 520.813 112.395C520.813 112.395 526.395 122.663 541.063 123.596L542.056 123.391C541.887 122.648 541.82 121.885 541.858 121.123C541.858 118.253 542.96 115.502 544.924 113.473C546.887 111.444 549.549 110.304 552.326 110.304C559.307 110.304 560.807 114.43 560.807 114.43L565.792 111.34C565.738 111.322 565.232 116.474 562.703 117.51Z"/>
</mask>
<path d="M562.703 117.51L567.689 116.483C567.689 116.483 563.543 121.347 562.703 121.627C562.629 122.655 562.629 123.688 562.703 124.716C553.13 167.188 517.823 148.426 517.823 148.426C530.694 148.734 531.787 143.273 531.787 143.273C524.308 142.144 522.809 137.084 522.809 137.084C523.48 137.452 524.258 137.55 524.995 137.361C525.732 137.171 526.375 136.707 526.801 136.058C518.726 133.892 519.819 125.79 519.819 125.79C521.259 126.865 522.941 127.54 524.706 127.75C523.802 126.621 516.225 117.24 520.813 112.395C520.813 112.395 526.395 122.663 541.063 123.596L542.056 123.391C541.887 122.648 541.82 121.885 541.858 121.123C541.858 118.253 542.96 115.502 544.924 113.473C546.887 111.444 549.549 110.304 552.326 110.304C559.307 110.304 560.807 114.43 560.807 114.43L565.792 111.34C565.738 111.322 565.232 116.474 562.703 117.51Z" fill="#00ACED" stroke="#101010" stroke-width="4" mask="url(#path-40-inside-6)"/>
</g>
<g id="Vector_23">
<mask id="path-41-inside-7" fill="white">
<path d="M464.103 300.852L473 299.022C473 299.022 465.521 307.616 464.103 308.157C463.97 309.982 463.97 311.815 464.103 313.64C447.015 388.945 384 355.681 384 355.681C406.963 356.231 408.924 346.546 408.924 346.546C395.571 344.533 392.905 335.58 392.905 335.58C394.103 336.229 395.492 336.401 396.806 336.063C398.121 335.725 399.267 334.902 400.027 333.75C385.612 329.914 387.565 315.447 387.565 315.447C390.06 317.643 393.974 318.55 396.284 318.916C394.679 316.903 381.156 300.271 389.309 291.684C389.309 291.684 399.275 309.988 425.447 311.579L427.229 311.213C426.926 309.897 426.806 308.544 426.873 307.194C426.871 304.673 427.354 302.177 428.293 299.848C429.232 297.519 430.609 295.402 432.345 293.62C434.081 291.837 436.142 290.423 438.411 289.459C440.679 288.495 443.11 287.999 445.565 288C458.027 288 460.693 295.313 460.693 295.313L469.621 289.902C469.443 289.902 468.552 299.03 464.103 300.852Z"/>
</mask>
<path d="M464.103 300.852L473 299.022C473 299.022 465.521 307.616 464.103 308.157C463.97 309.982 463.97 311.815 464.103 313.64C447.015 388.945 384 355.681 384 355.681C406.963 356.231 408.924 346.546 408.924 346.546C395.571 344.533 392.905 335.58 392.905 335.58C394.103 336.229 395.492 336.401 396.806 336.063C398.121 335.725 399.267 334.902 400.027 333.75C385.612 329.914 387.565 315.447 387.565 315.447C390.06 317.643 393.974 318.55 396.284 318.916C394.679 316.903 381.156 300.271 389.309 291.684C389.309 291.684 399.275 309.988 425.447 311.579L427.229 311.213C426.926 309.897 426.806 308.544 426.873 307.194C426.871 304.673 427.354 302.177 428.293 299.848C429.232 297.519 430.609 295.402 432.345 293.62C434.081 291.837 436.142 290.423 438.411 289.459C440.679 288.495 443.11 287.999 445.565 288C458.027 288 460.693 295.313 460.693 295.313L469.621 289.902C469.443 289.902 468.552 299.03 464.103 300.852Z" fill="#1DA1F2" stroke="#101010" stroke-width="4" mask="url(#path-41-inside-7)"/>
</g>
<g id="Vector_24">
<mask id="path-42-inside-8" fill="white">
<path d="M395.177 24.736L400.127 23.7093C400.127 23.7093 395.936 28.5538 395.141 28.8618C395.067 29.8903 395.067 30.923 395.141 31.9515C385.567 74.4228 350.261 55.6608 350.261 55.6608C363.131 55.9688 364.224 50.5082 364.224 50.5082C356.746 49.3787 355.246 44.3195 355.246 44.3195C355.917 44.687 356.696 44.7855 357.433 44.596C358.17 44.4065 358.813 43.9423 359.239 43.2927C351.164 41.1272 352.257 33.0249 352.257 33.0249C353.696 34.1 355.379 34.775 357.143 34.9852C356.24 33.8557 348.662 24.4747 353.25 19.6301C353.25 19.6301 358.832 29.8979 373.5 30.8314L374.494 30.626C374.324 29.8834 374.257 29.1197 374.295 28.3578C374.293 26.9347 374.562 25.5251 375.088 24.2098C375.613 22.8945 376.385 21.6992 377.358 20.6925C378.331 19.6858 379.487 18.8875 380.759 18.3432C382.032 17.7989 383.395 17.5193 384.772 17.5206C391.754 17.5206 393.253 21.6464 393.253 21.6464L398.239 18.5567C398.176 18.5567 397.679 23.7093 395.177 24.736Z"/>
</mask>
<path d="M395.177 24.736L400.127 23.7093C400.127 23.7093 395.936 28.5538 395.141 28.8618C395.067 29.8903 395.067 30.923 395.141 31.9515C385.567 74.4228 350.261 55.6608 350.261 55.6608C363.131 55.9688 364.224 50.5082 364.224 50.5082C356.746 49.3787 355.246 44.3195 355.246 44.3195C355.917 44.687 356.696 44.7855 357.433 44.596C358.17 44.4065 358.813 43.9423 359.239 43.2927C351.164 41.1272 352.257 33.0249 352.257 33.0249C353.696 34.1 355.379 34.775 357.143 34.9852C356.24 33.8557 348.662 24.4747 353.25 19.6301C353.25 19.6301 358.832 29.8979 373.5 30.8314L374.494 30.626C374.324 29.8834 374.257 29.1197 374.295 28.3578C374.293 26.9347 374.562 25.5251 375.088 24.2098C375.613 22.8945 376.385 21.6992 377.358 20.6925C378.331 19.6858 379.487 18.8875 380.759 18.3432C382.032 17.7989 383.395 17.5193 384.772 17.5206C391.754 17.5206 393.253 21.6464 393.253 21.6464L398.239 18.5567C398.176 18.5567 397.679 23.7093 395.177 24.736Z" fill="#1DA1F2" stroke="#101010" stroke-width="4" mask="url(#path-42-inside-8)"/>
</g>
<g id="Vector_25">
<mask id="path-43-inside-9" fill="white">
<path d="M242.581 139.157L247.566 138.13C247.566 138.13 243.376 142.974 242.581 143.282C242.506 144.311 242.506 145.344 242.581 146.372C233.007 188.843 197.7 170.081 197.7 170.081C210.571 170.389 211.664 164.929 211.664 164.929C204.185 163.799 202.686 158.74 202.686 158.74C203.357 159.108 204.136 159.206 204.872 159.017C205.609 158.827 206.252 158.363 206.678 157.713C198.604 155.548 199.697 147.445 199.697 147.445C201.136 148.521 202.819 149.196 204.583 149.406C203.68 148.276 196.102 138.895 200.69 134.051C200.69 134.051 206.272 144.318 220.94 145.252L221.933 145.047C221.764 144.304 221.697 143.54 221.735 142.778C221.735 139.909 222.838 137.157 224.801 135.128C226.764 133.1 229.427 131.96 232.203 131.96C239.185 131.96 240.684 136.086 240.684 136.086L245.67 132.996C245.57 132.968 245.074 138.148 242.581 139.157Z"/>
</mask>
<path d="M242.581 139.157L247.566 138.13C247.566 138.13 243.376 142.974 242.581 143.282C242.506 144.311 242.506 145.344 242.581 146.372C233.007 188.843 197.7 170.081 197.7 170.081C210.571 170.389 211.664 164.929 211.664 164.929C204.185 163.799 202.686 158.74 202.686 158.74C203.357 159.108 204.136 159.206 204.872 159.017C205.609 158.827 206.252 158.363 206.678 157.713C198.604 155.548 199.697 147.445 199.697 147.445C201.136 148.521 202.819 149.196 204.583 149.406C203.68 148.276 196.102 138.895 200.69 134.051C200.69 134.051 206.272 144.318 220.94 145.252L221.933 145.047C221.764 144.304 221.697 143.54 221.735 142.778C221.735 139.909 222.838 137.157 224.801 135.128C226.764 133.1 229.427 131.96 232.203 131.96C239.185 131.96 240.684 136.086 240.684 136.086L245.67 132.996C245.57 132.968 245.074 138.148 242.581 139.157Z" fill="#1DA1F2" stroke="#101010" stroke-width="4" mask="url(#path-43-inside-9)"/>
</g>
<g id="Vector_26" opacity="0.3">
<mask id="path-44-inside-10" fill="white">
<path d="M200.69 64.9391L205.676 63.9123C205.676 63.9123 201.485 68.7569 200.69 69.0649C200.616 70.0933 200.616 71.1261 200.69 72.1546C191.116 114.626 155.81 95.8638 155.81 95.8638C168.68 96.1718 169.773 90.7112 169.773 90.7112C162.295 89.5818 160.795 84.5226 160.795 84.5226C161.466 84.8901 162.245 84.9885 162.982 84.799C163.719 84.6095 164.362 84.1454 164.788 83.4958C156.713 81.3302 157.806 73.228 157.806 73.228C159.245 74.3031 160.928 74.9781 162.692 75.1882C161.789 74.0588 154.211 64.6777 158.799 59.8332C158.799 59.8332 164.381 70.101 179.049 71.0344L180.043 70.8291C179.873 70.0865 179.806 69.3228 179.844 68.5608C179.844 65.6916 180.947 62.9399 182.91 60.911C184.873 58.8821 187.536 57.7423 190.312 57.7423C197.294 57.7423 198.793 61.8681 198.793 61.8681L203.779 58.7784C203.68 58.7504 203.228 63.9123 200.69 64.9391Z"/>
</mask>
<g filter="url(#filter17_i)">
<path d="M200.69 64.9391L205.676 63.9123C205.676 63.9123 201.485 68.7569 200.69 69.0649C200.616 70.0933 200.616 71.1261 200.69 72.1546C191.116 114.626 155.81 95.8638 155.81 95.8638C168.68 96.1718 169.773 90.7112 169.773 90.7112C162.295 89.5818 160.795 84.5226 160.795 84.5226C161.466 84.8901 162.245 84.9885 162.982 84.799C163.719 84.6095 164.362 84.1454 164.788 83.4958C156.713 81.3302 157.806 73.228 157.806 73.228C159.245 74.3031 160.928 74.9781 162.692 75.1882C161.789 74.0588 154.211 64.6777 158.799 59.8332C158.799 59.8332 164.381 70.101 179.049 71.0344L180.043 70.8291C179.873 70.0865 179.806 69.3228 179.844 68.5608C179.844 65.6916 180.947 62.9399 182.91 60.911C184.873 58.8821 187.536 57.7423 190.312 57.7423C197.294 57.7423 198.793 61.8681 198.793 61.8681L203.779 58.7784C203.68 58.7504 203.228 63.9123 200.69 64.9391Z" fill="#1DA1F2"/>
</g>
<path d="M200.69 64.9391L205.676 63.9123C205.676 63.9123 201.485 68.7569 200.69 69.0649C200.616 70.0933 200.616 71.1261 200.69 72.1546C191.116 114.626 155.81 95.8638 155.81 95.8638C168.68 96.1718 169.773 90.7112 169.773 90.7112C162.295 89.5818 160.795 84.5226 160.795 84.5226C161.466 84.8901 162.245 84.9885 162.982 84.799C163.719 84.6095 164.362 84.1454 164.788 83.4958C156.713 81.3302 157.806 73.228 157.806 73.228C159.245 74.3031 160.928 74.9781 162.692 75.1882C161.789 74.0588 154.211 64.6777 158.799 59.8332C158.799 59.8332 164.381 70.101 179.049 71.0344L180.043 70.8291C179.873 70.0865 179.806 69.3228 179.844 68.5608C179.844 65.6916 180.947 62.9399 182.91 60.911C184.873 58.8821 187.536 57.7423 190.312 57.7423C197.294 57.7423 198.793 61.8681 198.793 61.8681L203.779 58.7784C203.68 58.7504 203.228 63.9123 200.69 64.9391Z" stroke="#101010" stroke-width="4" mask="url(#path-44-inside-10)"/>
</g>
<g id="Vector_27">
<mask id="path-45-inside-11" fill="white">
<path d="M376.228 379.32L381.214 378.293C381.214 378.293 377.023 383.138 376.228 383.446C376.153 384.474 376.153 385.507 376.228 386.536C366.654 429.007 331.348 410.245 331.348 410.245C344.218 410.553 345.311 405.092 345.311 405.092C337.833 403.963 336.333 398.904 336.333 398.904C337.004 399.271 337.783 399.37 338.52 399.18C339.256 398.991 339.9 398.527 340.326 397.877C332.251 395.711 333.344 387.609 333.344 387.609C334.783 388.684 336.466 389.359 338.23 389.569C337.327 388.44 329.749 379.059 334.337 374.214C334.337 374.214 339.919 384.482 354.587 385.416L355.581 385.21C355.411 384.468 355.344 383.704 355.382 382.942C355.382 380.073 356.485 377.321 358.448 375.292C360.411 373.263 363.074 372.123 365.85 372.123C372.832 372.123 374.331 376.249 374.331 376.249L379.317 373.16C379.227 373.141 378.721 378.293 376.228 379.32Z"/>
</mask>
<path d="M376.228 379.32L381.214 378.293C381.214 378.293 377.023 383.138 376.228 383.446C376.153 384.474 376.153 385.507 376.228 386.536C366.654 429.007 331.348 410.245 331.348 410.245C344.218 410.553 345.311 405.092 345.311 405.092C337.833 403.963 336.333 398.904 336.333 398.904C337.004 399.271 337.783 399.37 338.52 399.18C339.256 398.991 339.9 398.527 340.326 397.877C332.251 395.711 333.344 387.609 333.344 387.609C334.783 388.684 336.466 389.359 338.23 389.569C337.327 388.44 329.749 379.059 334.337 374.214C334.337 374.214 339.919 384.482 354.587 385.416L355.581 385.21C355.411 384.468 355.344 383.704 355.382 382.942C355.382 380.073 356.485 377.321 358.448 375.292C360.411 373.263 363.074 372.123 365.85 372.123C372.832 372.123 374.331 376.249 374.331 376.249L379.317 373.16C379.227 373.141 378.721 378.293 376.228 379.32Z" fill="#1DA1F2" stroke="black" stroke-width="4" mask="url(#path-45-inside-11)"/>
</g>
<g id="Vector_28">
<mask id="path-46-inside-12" fill="white">
<path d="M667.267 155.604L677.41 153.503C677.41 153.503 668.866 163.389 667.24 164.014C667.088 166.114 667.088 168.224 667.24 170.324C647.704 256.956 575.682 218.685 575.682 218.685C601.957 219.357 604.197 208.156 604.197 208.156C588.933 205.841 585.889 195.536 585.889 195.536C587.258 196.272 588.841 196.464 590.338 196.077C591.835 195.691 593.144 194.751 594.018 193.436C577.534 189.021 579.774 172.406 579.774 172.406C582.619 174.926 587.099 175.981 589.709 176.401C587.903 174.086 572.413 154.932 581.77 145.065C581.77 145.065 593.169 166.096 623.074 167.981L625.106 167.561C624.756 166.033 624.619 164.462 624.699 162.894C624.699 157.039 626.95 151.424 630.956 147.284C634.962 143.144 640.395 140.818 646.06 140.818C660.304 140.818 663.357 149.219 663.357 149.219L673.527 142.909C673.373 142.984 672.353 153.503 667.267 155.604Z"/>
</mask>
<path d="M667.267 155.604L677.41 153.503C677.41 153.503 668.866 163.389 667.24 164.014C667.088 166.114 667.088 168.224 667.24 170.324C647.704 256.956 575.682 218.685 575.682 218.685C601.957 219.357 604.197 208.156 604.197 208.156C588.933 205.841 585.889 195.536 585.889 195.536C587.258 196.272 588.841 196.464 590.338 196.077C591.835 195.691 593.144 194.751 594.018 193.436C577.534 189.021 579.774 172.406 579.774 172.406C582.619 174.926 587.099 175.981 589.709 176.401C587.903 174.086 572.413 154.932 581.77 145.065C581.77 145.065 593.169 166.096 623.074 167.981L625.106 167.561C624.756 166.033 624.619 164.462 624.699 162.894C624.699 157.039 626.95 151.424 630.956 147.284C634.962 143.144 640.395 140.818 646.06 140.818C660.304 140.818 663.357 149.219 663.357 149.219L673.527 142.909C673.373 142.984 672.353 153.503 667.267 155.604Z" fill="#535461" stroke="#101010" stroke-width="4" mask="url(#path-46-inside-12)"/>
</g>
<g id="Vector_29">
<mask id="path-47-inside-13" fill="white">
<path d="M263.327 240.126L273.497 238.026C273.497 238.026 264.953 247.911 263.327 248.537C263.175 250.637 263.175 252.746 263.327 254.847C243.791 341.479 171.769 303.208 171.769 303.208C198.017 303.843 200.256 292.697 200.256 292.697C184.992 290.382 181.949 280.077 181.949 280.077C183.318 280.813 184.901 281.006 186.398 280.619C187.895 280.232 189.204 279.292 190.077 277.977C173.594 273.562 175.834 256.947 175.834 256.947C178.679 259.467 183.159 260.522 185.769 260.942C183.963 258.627 168.473 239.473 177.83 229.606C177.83 229.606 189.228 250.637 219.133 252.522L221.166 252.102C220.816 250.574 220.679 249.003 220.759 247.435C220.759 241.58 223.01 235.965 227.016 231.825C231.022 227.685 236.455 225.359 242.12 225.359C256.364 225.359 259.416 233.76 259.416 233.76L269.586 227.45C269.433 227.506 268.412 238.026 263.327 240.126Z"/>
</mask>
<path d="M263.327 240.126L273.497 238.026C273.497 238.026 264.953 247.911 263.327 248.537C263.175 250.637 263.175 252.746 263.327 254.847C243.791 341.479 171.769 303.208 171.769 303.208C198.017 303.843 200.256 292.697 200.256 292.697C184.992 290.382 181.949 280.077 181.949 280.077C183.318 280.813 184.901 281.006 186.398 280.619C187.895 280.232 189.204 279.292 190.077 277.977C173.594 273.562 175.834 256.947 175.834 256.947C178.679 259.467 183.159 260.522 185.769 260.942C183.963 258.627 168.473 239.473 177.83 229.606C177.83 229.606 189.228 250.637 219.133 252.522L221.166 252.102C220.816 250.574 220.679 249.003 220.759 247.435C220.759 241.58 223.01 235.965 227.016 231.825C231.022 227.685 236.455 225.359 242.12 225.359C256.364 225.359 259.416 233.76 259.416 233.76L269.586 227.45C269.433 227.506 268.412 238.026 263.327 240.126Z" fill="#535461" stroke="#101010" stroke-width="4" mask="url(#path-47-inside-13)"/>
</g>
</g>
<g id="HNC" filter="url(#filter18_d)">
<path d="M485.164 634.887L487.815 634.318L487.833 641.604L495.624 639.932L495.606 632.645L498.234 632.081L498.267 649.502L495.639 650.067L495.634 642.384L487.844 644.057L487.848 651.739L485.197 652.308L485.164 634.887ZM506.631 630.279L508.696 629.836L517.587 640.495L517.548 627.96L520.199 627.391L520.227 644.789L518.068 645.252L509.284 634.864L509.316 647.131L506.664 647.7L506.631 630.279ZM535.212 641.719C534.274 641.921 533.387 641.907 532.552 641.677C531.73 641.428 530.998 641.028 530.356 640.479C529.714 639.929 529.17 639.261 528.723 638.473C528.275 637.685 527.954 636.838 527.76 635.93C527.514 634.789 527.51 633.587 527.747 632.325C527.98 631.048 528.426 629.847 529.085 628.724C529.74 627.585 530.591 626.592 531.636 625.746C532.698 624.896 533.925 624.322 535.317 624.023C536.756 623.714 537.994 623.8 539.03 624.282C540.066 624.763 540.841 625.513 541.354 626.532L539.305 628.42C539.088 627.943 538.825 627.558 538.516 627.264C538.208 626.97 537.867 626.757 537.495 626.624C537.139 626.488 536.764 626.421 536.372 626.423C535.976 626.41 535.591 626.444 535.216 626.524C534.261 626.729 533.442 627.142 532.757 627.764C532.072 628.385 531.525 629.116 531.117 629.957C530.72 630.778 530.458 631.653 530.33 632.58C530.217 633.505 530.248 634.374 530.423 635.187C530.564 635.844 530.784 636.451 531.084 637.009C531.38 637.551 531.741 638.013 532.167 638.396C532.59 638.764 533.064 639.03 533.591 639.195C534.129 639.342 534.704 639.349 535.314 639.218C535.689 639.138 536.078 639.005 536.48 638.821C536.895 638.617 537.282 638.362 537.642 638.056C538.014 637.731 538.35 637.355 538.652 636.931C538.969 636.503 539.232 636.013 539.441 635.46L541.632 636.291C541.391 636.997 541.041 637.653 540.582 638.259C540.119 638.85 539.595 639.379 539.008 639.849C538.422 640.318 537.795 640.715 537.128 641.038C536.477 641.358 535.838 641.585 535.212 641.719Z" fill="black"/>
</g>
</g>
<defs>
<filter id="filter0_d" x="343.803" y="323.673" width="216.099" height="416.454" filterUnits="userSpaceOnUse" color-interpolation-filters="sRGB">
<feFlood flood-opacity="0" result="BackgroundImageFix"/>
<feColorMatrix in="SourceAlpha" type="matrix" values="0 0 0 0 0 0 0 0 0 0 0 0 0 0 0 0 0 0 127 0"/>
<feOffset dy="10"/>
<feGaussianBlur stdDeviation="2.5"/>
<feColorMatrix type="matrix" values="0 0 0 0 0 0 0 0 0 0 0 0 0 0 0 0 0 0 0.25 0"/>
<feBlend mode="normal" in2="BackgroundImageFix" result="effect1_dropShadow"/>
<feBlend mode="normal" in="SourceGraphic" in2="effect1_dropShadow" result="shape"/>
</filter>
<filter id="filter1_d" x="343.803" y="323.673" width="216.099" height="416.454" filterUnits="userSpaceOnUse" color-interpolation-filters="sRGB">
<feFlood flood-opacity="0" result="BackgroundImageFix"/>
<feColorMatrix in="SourceAlpha" type="matrix" values="0 0 0 0 0 0 0 0 0 0 0 0 0 0 0 0 0 0 127 0"/>
<feOffset dy="10"/>
<feGaussianBlur stdDeviation="2.5"/>
<feColorMatrix type="matrix" values="0 0 0 0 0 0 0 0 0 0 0 0 0 0 0 0 0 0 0.25 0"/>
<feBlend mode="normal" in2="BackgroundImageFix" result="effect1_dropShadow"/>
<feBlend mode="normal" in="SourceGraphic" in2="effect1_dropShadow" result="shape"/>
</filter>
<filter id="filter2_d" x="137.704" y="323.673" width="216.099" height="416.454" filterUnits="userSpaceOnUse" color-interpolation-filters="sRGB">
<feFlood flood-opacity="0" result="BackgroundImageFix"/>
<feColorMatrix in="SourceAlpha" type="matrix" values="0 0 0 0 0 0 0 0 0 0 0 0 0 0 0 0 0 0 127 0"/>
<feOffset dy="10"/>
<feGaussianBlur stdDeviation="2.5"/>
<feColorMatrix type="matrix" values="0 0 0 0 0 0 0 0 0 0 0 0 0 0 0 0 0 0 0.25 0"/>
<feBlend mode="normal" in2="BackgroundImageFix" result="effect1_dropShadow"/>
<feBlend mode="normal" in="SourceGraphic" in2="effect1_dropShadow" result="shape"/>
</filter>
<filter id="filter3_d" x="137.704" y="321.903" width="216.099" height="418.223" filterUnits="userSpaceOnUse" color-interpolation-filters="sRGB">
<feFlood flood-opacity="0" result="BackgroundImageFix"/>
<feColorMatrix in="SourceAlpha" type="matrix" values="0 0 0 0 0 0 0 0 0 0 0 0 0 0 0 0 0 0 127 0"/>
<feOffset dy="10"/>
<feGaussianBlur stdDeviation="2.5"/>
<feColorMatrix type="matrix" values="0 0 0 0 0 0 0 0 0 0 0 0 0 0 0 0 0 0 0.25 0"/>
<feBlend mode="normal" in2="BackgroundImageFix" result="effect1_dropShadow"/>
<feBlend mode="normal" in="SourceGraphic" in2="effect1_dropShadow" result="shape"/>
</filter>
<filter id="filter4_d" x="342.081" y="232.229" width="324.639" height="159.515" filterUnits="userSpaceOnUse" color-interpolation-filters="sRGB">
<feFlood flood-opacity="0" result="BackgroundImageFix"/>
<feColorMatrix in="SourceAlpha" type="matrix" values="0 0 0 0 0 0 0 0 0 0 0 0 0 0 0 0 0 0 127 0"/>
<feOffset dy="10"/>
<feGaussianBlur stdDeviation="2.5"/>
<feColorMatrix type="matrix" values="0 0 0 0 0 0 0 0 0 0 0 0 0 0 0 0 0 0 0.25 0"/>
<feBlend mode="normal" in2="BackgroundImageFix" result="effect1_dropShadow"/>
<feBlend mode="normal" in="SourceGraphic" in2="effect1_dropShadow" result="shape"/>
</filter>
<filter id="filter5_d" x="33.6769" y="234.008" width="321.838" height="157.735" filterUnits="userSpaceOnUse" color-interpolation-filters="sRGB">
<feFlood flood-opacity="0" result="BackgroundImageFix"/>
<feColorMatrix in="SourceAlpha" type="matrix" values="0 0 0 0 0 0 0 0 0 0 0 0 0 0 0 0 0 0 127 0"/>
<feOffset dy="10"/>
<feGaussianBlur stdDeviation="2.5"/>
<feColorMatrix type="matrix" values="0 0 0 0 0 0 0 0 0 0 0 0 0 0 0 0 0 0 0.25 0"/>
<feBlend mode="normal" in2="BackgroundImageFix" result="effect1_dropShadow"/>
<feBlend mode="normal" in="SourceGraphic" in2="effect1_dropShadow" result="shape"/>
</filter>
<filter id="filter6_d" x="31.9649" y="232.229" width="324.416" height="159.515" filterUnits="userSpaceOnUse" color-interpolation-filters="sRGB">
<feFlood flood-opacity="0" result="BackgroundImageFix"/>
<feColorMatrix in="SourceAlpha" type="matrix" values="0 0 0 0 0 0 0 0 0 0 0 0 0 0 0 0 0 0 127 0"/>
<feOffset dy="10"/>
<feGaussianBlur stdDeviation="2.5"/>
<feColorMatrix type="matrix" values="0 0 0 0 0 0 0 0 0 0 0 0 0 0 0 0 0 0 0.25 0"/>
<feBlend mode="normal" in2="BackgroundImageFix" result="effect1_dropShadow"/>
<feBlend mode="normal" in="SourceGraphic" in2="effect1_dropShadow" result="shape"/>
</filter>
<filter id="filter7_d" x="137.704" y="374.974" width="218.881" height="365.153" filterUnits="userSpaceOnUse" color-interpolation-filters="sRGB">
<feFlood flood-opacity="0" result="BackgroundImageFix"/>
<feColorMatrix in="SourceAlpha" type="matrix" values="0 0 0 0 0 0 0 0 0 0 0 0 0 0 0 0 0 0 127 0"/>
<feOffset dy="10"/>
<feGaussianBlur stdDeviation="2.5"/>
<feColorMatrix type="matrix" values="0 0 0 0 0 0 0 0 0 0 0 0 0 0 0 0 0 0 0.25 0"/>
<feBlend mode="normal" in2="BackgroundImageFix" result="effect1_dropShadow"/>
<feBlend mode="normal" in="SourceGraphic" in2="effect1_dropShadow" result="shape"/>
</filter>
<filter id="filter8_d" x="343.803" y="374.974" width="216.099" height="365.153" filterUnits="userSpaceOnUse" color-interpolation-filters="sRGB">
<feFlood flood-opacity="0" result="BackgroundImageFix"/>
<feColorMatrix in="SourceAlpha" type="matrix" values="0 0 0 0 0 0 0 0 0 0 0 0 0 0 0 0 0 0 127 0"/>
<feOffset dy="10"/>
<feGaussianBlur stdDeviation="2.5"/>
<feColorMatrix type="matrix" values="0 0 0 0 0 0 0 0 0 0 0 0 0 0 0 0 0 0 0.25 0"/>
<feBlend mode="normal" in2="BackgroundImageFix" result="effect1_dropShadow"/>
<feBlend mode="normal" in="SourceGraphic" in2="effect1_dropShadow" result="shape"/>
</filter>
<filter id="filter9_d" x="343.803" y="374.974" width="216.099" height="365.153" filterUnits="userSpaceOnUse" color-interpolation-filters="sRGB">
<feFlood flood-opacity="0" result="BackgroundImageFix"/>
<feColorMatrix in="SourceAlpha" type="matrix" values="0 0 0 0 0 0 0 0 0 0 0 0 0 0 0 0 0 0 127 0"/>
<feOffset dy="10"/>
<feGaussianBlur stdDeviation="2.5"/>
<feColorMatrix type="matrix" values="0 0 0 0 0 0 0 0 0 0 0 0 0 0 0 0 0 0 0.25 0"/>
<feBlend mode="normal" in2="BackgroundImageFix" result="effect1_dropShadow"/>
<feBlend mode="normal" in="SourceGraphic" in2="effect1_dropShadow" result="shape"/>
</filter>
<filter id="filter10_d" x="467.888" y="547.819" width="92.0133" height="135.437" filterUnits="userSpaceOnUse" color-interpolation-filters="sRGB">
<feFlood flood-opacity="0" result="BackgroundImageFix"/>
<feColorMatrix in="SourceAlpha" type="matrix" values="0 0 0 0 0 0 0 0 0 0 0 0 0 0 0 0 0 0 127 0"/>
<feOffset dy="10"/>
<feGaussianBlur stdDeviation="2.5"/>
<feColorMatrix type="matrix" values="0 0 0 0 0 0 0 0 0 0 0 0 0 0 0 0 0 0 0.25 0"/>
<feBlend mode="normal" in2="BackgroundImageFix" result="effect1_dropShadow"/>
<feBlend mode="normal" in="SourceGraphic" in2="effect1_dropShadow" result="shape"/>
</filter>
<filter id="filter11_d" x="135.009" y="378.875" width="218.258" height="194.54" filterUnits="userSpaceOnUse" color-interpolation-filters="sRGB">
<feFlood flood-opacity="0" result="BackgroundImageFix"/>
<feColorMatrix in="SourceAlpha" type="matrix" values="0 0 0 0 0 0 0 0 0 0 0 0 0 0 0 0 0 0 127 0"/>
<feOffset dy="10"/>
<feGaussianBlur stdDeviation="2.5"/>
<feColorMatrix type="matrix" values="0 0 0 0 0 0 0 0 0 0 0 0 0 0 0 0 0 0 0.25 0"/>
<feBlend mode="normal" in2="BackgroundImageFix" result="effect1_dropShadow"/>
<feBlend mode="normal" in="SourceGraphic" in2="effect1_dropShadow" result="shape"/>
</filter>
<filter id="filter12_d" x="343.268" y="378.875" width="218.249" height="194.54" filterUnits="userSpaceOnUse" color-interpolation-filters="sRGB">
<feFlood flood-opacity="0" result="BackgroundImageFix"/>
<feColorMatrix in="SourceAlpha" type="matrix" values="0 0 0 0 0 0 0 0 0 0 0 0 0 0 0 0 0 0 127 0"/>
<feOffset dy="10"/>
<feGaussianBlur stdDeviation="2.5"/>
<feColorMatrix type="matrix" values="0 0 0 0 0 0 0 0 0 0 0 0 0 0 0 0 0 0 0.25 0"/>
<feBlend mode="normal" in2="BackgroundImageFix" result="effect1_dropShadow"/>
<feBlend mode="normal" in="SourceGraphic" in2="effect1_dropShadow" result="shape"/>
</filter>
<filter id="filter13_d" x="31.9649" y="374.974" width="321.838" height="158.851" filterUnits="userSpaceOnUse" color-interpolation-filters="sRGB">
<feFlood flood-opacity="0" result="BackgroundImageFix"/>
<feColorMatrix in="SourceAlpha" type="matrix" values="0 0 0 0 0 0 0 0 0 0 0 0 0 0 0 0 0 0 127 0"/>
<feOffset dy="10"/>
<feGaussianBlur stdDeviation="2.5"/>
<feColorMatrix type="matrix" values="0 0 0 0 0 0 0 0 0 0 0 0 0 0 0 0 0 0 0.25 0"/>
<feBlend mode="normal" in2="BackgroundImageFix" result="effect1_dropShadow"/>
<feBlend mode="normal" in="SourceGraphic" in2="effect1_dropShadow" result="shape"/>
</filter>
<filter id="filter14_d" x="343.803" y="374.974" width="322.918" height="158.851" filterUnits="userSpaceOnUse" color-interpolation-filters="sRGB">
<feFlood flood-opacity="0" result="BackgroundImageFix"/>
<feColorMatrix in="SourceAlpha" type="matrix" values="0 0 0 0 0 0 0 0 0 0 0 0 0 0 0 0 0 0 127 0"/>
<feOffset dy="10"/>
<feGaussianBlur stdDeviation="2.5"/>
<feColorMatrix type="matrix" values="0 0 0 0 0 0 0 0 0 0 0 0 0 0 0 0 0 0 0.25 0"/>
<feBlend mode="normal" in2="BackgroundImageFix" result="effect1_dropShadow"/>
<feBlend mode="normal" in="SourceGraphic" in2="effect1_dropShadow" result="shape"/>
</filter>
<filter id="filter15_d" x="343.803" y="374.974" width="322.918" height="158.851" filterUnits="userSpaceOnUse" color-interpolation-filters="sRGB">
<feFlood flood-opacity="0" result="BackgroundImageFix"/>
<feColorMatrix in="SourceAlpha" type="matrix" values="0 0 0 0 0 0 0 0 0 0 0 0 0 0 0 0 0 0 127 0"/>
<feOffset dy="10"/>
<feGaussianBlur stdDeviation="2.5"/>
<feColorMatrix type="matrix" values="0 0 0 0 0 0 0 0 0 0 0 0 0 0 0 0 0 0 0.25 0"/>
<feBlend mode="normal" in2="BackgroundImageFix" result="effect1_dropShadow"/>
<feBlend mode="normal" in="SourceGraphic" in2="effect1_dropShadow" result="shape"/>
</filter>
<filter id="filter16_i" x="69.066" y="0" width="713.358" height="418.373" filterUnits="userSpaceOnUse" color-interpolation-filters="sRGB">
<feFlood flood-opacity="0" result="BackgroundImageFix"/>
<feBlend mode="normal" in="SourceGraphic" in2="BackgroundImageFix" result="shape"/>
<feColorMatrix in="SourceAlpha" type="matrix" values="0 0 0 0 0 0 0 0 0 0 0 0 0 0 0 0 0 0 127 0" result="hardAlpha"/>
<feOffset dy="4"/>
<feGaussianBlur stdDeviation="2"/>
<feComposite in2="hardAlpha" operator="arithmetic" k2="-1" k3="1"/>
<feColorMatrix type="matrix" values="0 0 0 0 0 0 0 0 0 0 0 0 0 0 0 0 0 0 0.25 0"/>
<feBlend mode="normal" in2="shape" result="effect1_innerShadow"/>
</filter>
<filter id="filter17_i" x="155.81" y="57.7423" width="49.8659" height="46.2498" filterUnits="userSpaceOnUse" color-interpolation-filters="sRGB">
<feFlood flood-opacity="0" result="BackgroundImageFix"/>
<feBlend mode="normal" in="SourceGraphic" in2="BackgroundImageFix" result="shape"/>
<feColorMatrix in="SourceAlpha" type="matrix" values="0 0 0 0 0 0 0 0 0 0 0 0 0 0 0 0 0 0 127 0" result="hardAlpha"/>
<feOffset dy="4"/>
<feGaussianBlur stdDeviation="2"/>
<feComposite in2="hardAlpha" operator="arithmetic" k2="-1" k3="1"/>
<feColorMatrix type="matrix" values="0 0 0 0 0 0 0 0 0 0 0 0 0 0 0 0 0 0 0.25 0"/>
<feBlend mode="normal" in2="shape" result="effect1_innerShadow"/>
</filter>
<filter id="filter18_d" x="481.164" y="623.842" width="64.4684" height="36.4659" filterUnits="userSpaceOnUse" color-interpolation-filters="sRGB">
<feFlood flood-opacity="0" result="BackgroundImageFix"/>
<feColorMatrix in="SourceAlpha" type="matrix" values="0 0 0 0 0 0 0 0 0 0 0 0 0 0 0 0 0 0 127 0"/>
<feOffset dy="4"/>
<feGaussianBlur stdDeviation="2"/>
<feColorMatrix type="matrix" values="0 0 0 0 0 0 0 0 0 0 0 0 0 0 0 0 0 0 0.25 0"/>
<feBlend mode="normal" in2="BackgroundImageFix" result="effect1_dropShadow"/>
<feBlend mode="normal" in="SourceGraphic" in2="effect1_dropShadow" result="shape"/>
</filter>
</defs>
</svg>
