<svg width="1024" height="886" viewBox="0 0 1024 886" fill="none" xmlns="http://www.w3.org/2000/svg">
<g id="undraw_tweetstorm_49e8 (1) 1">
<g id="Box">
<g id="Vector" filter="url(#filter0_d)">
<path d="M554.901 374.974L348.803 323.673V725.127L554.901 669.372V374.974Z" fill="#E0E0E0"/>
</g>
<g id="Vector_2" opacity="0.1" filter="url(#filter1_d)">
<path d="M554.901 374.974L348.803 323.673V725.127L554.901 669.372V374.974Z" fill="black"/>
</g>
<g id="Vector_3" filter="url(#filter2_d)">
<path d="M142.704 374.974L348.803 323.673V725.127L142.704 670.488V374.974Z" fill="#E0E0E0"/>
</g>
<g id="Vector_4" opacity="0.17" filter="url(#filter3_d)">
<path d="M142.704 373.195L348.803 321.903V725.127L142.704 670.488V373.195Z" fill="black"/>
</g>
<g id="Vector_5" filter="url(#filter4_d)">
<path d="M347.081 325.452L455.631 232.229L661.72 286.878L553.18 376.743L347.081 325.452Z" fill="#E0E0E0"/>
</g>
<g id="Vector_6" filter="url(#filter5_d)">
<path d="M38.6769 289.763L144.426 376.743L350.515 325.452L245.855 234.008L38.6769 289.763Z" fill="#E0E0E0"/>
</g>
<g id="Vector_7" opacity="0.05" filter="url(#filter6_d)">
<path d="M36.9649 287.994L145.282 376.743L351.38 325.452L244.134 232.229L36.9649 287.994Z" fill="black"/>
</g>
<g id="Vector_8" filter="url(#filter7_d)">
<path d="M142.704 374.974V670.488L348.803 725.127L351.585 431.845L142.704 374.974Z" fill="#E0E0E0"/>
</g>
<g id="Vector_9" filter="url(#filter8_d)">
<path d="M554.901 669.372L348.803 725.127V431.845L554.901 374.974V669.372Z" fill="#E0E0E0"/>
</g>
<g id="Vector_10" opacity="0.07" filter="url(#filter9_d)">
<path d="M554.901 669.372L348.803 725.127V431.845L554.901 374.974V669.372Z" fill="black"/>
</g>
<g id="Vector_11" opacity="0.07" filter="url(#filter10_d)">
<path d="M472.888 571.232V668.256L554.901 644.832V547.819L472.888 571.232Z" fill="black"/>
</g>
<g id="Vector_12" opacity="0.1" filter="url(#filter11_d)">
<path d="M140.009 528.305L255.466 558.415L348.268 480.352V432.398L142.169 378.875L140.009 528.305Z" fill="black"/>
</g>
<g id="Vector_13" opacity="0.1" filter="url(#filter12_d)">
<path d="M556.516 528.305L441.059 558.415L348.268 480.352V432.398L554.357 378.875L556.516 528.305Z" fill="black"/>
</g>
<g id="Vector_14" filter="url(#filter13_d)">
<path d="M142.704 374.974L36.9649 465.302L243.054 518.825L348.803 431.845L142.704 374.974Z" fill="#E0E0E0"/>
</g>
<g id="Vector_15" filter="url(#filter14_d)">
<path d="M554.901 374.974L661.72 465.302L456.701 518.825L348.803 431.845L554.901 374.974Z" fill="#E0E0E0"/>
</g>
<g id="Vector_16" opacity="0.07" filter="url(#filter15_d)">
<path d="M554.901 374.974L661.72 465.302L456.701 518.825L348.803 431.845L554.901 374.974Z" fill="black"/>
</g>
</g>
<g id="tgraph">
<g id="links">
<line id="Line 25" x1="356.882" y1="417.118" x2="226.118" y2="300.118" stroke="#959595" stroke-width="3" stroke-linecap="round" stroke-linejoin="round"/>
<line id="Line 26" x1="351.412" y1="406.593" x2="342.473" y2="258.595" stroke="#959595" stroke-width="3" stroke-linecap="round" stroke-linejoin="round"/>
<line id="Line 27" x1="363.151" y1="405.884" x2="405.884" y2="368.849" stroke="#959595" stroke-width="3" stroke-linecap="round" stroke-linejoin="round"/>
<line id="Line 28" x1="449.292" y1="348.899" x2="618.899" y2="220.708" stroke="#959595" stroke-width="3" stroke-linecap="round" stroke-linejoin="round"/>
<line id="Line 29" x1="230.432" y1="289.571" x2="224.571" y2="163.568" stroke="#959595" stroke-width="3" stroke-linecap="round" stroke-linejoin="round"/>
<line id="Line 32" x1="417.16" y1="158.055" x2="195.055" y2="97.8402" stroke="#959595" stroke-width="3" stroke-linecap="round" stroke-linejoin="round"/>
<line id="Line 30" x1="222.918" y1="296.408" x2="106.408" y2="218.082" stroke="#959595" stroke-width="3" stroke-linecap="round" stroke-linejoin="round"/>
<line id="Line 34" x1="384.039" y1="62.4147" x2="520.415" y2="137.961" stroke="#959595" stroke-width="3" stroke-linecap="round" stroke-linejoin="round"/>
<line id="Line 33" x1="426.964" y1="156.403" x2="369.403" y2="51.0355" stroke="#959595" stroke-width="3" stroke-linecap="round" stroke-linejoin="round"/>
<line id="Line 35" x1="199.209" y1="86.2571" x2="362.257" y2="56.7907" stroke="#959595" stroke-width="3" stroke-linecap="round" stroke-linejoin="round"/>
<line id="Line 36" x1="427.649" y1="178.334" x2="440.334" y2="298.351" stroke="#959595" stroke-width="3" stroke-linecap="round" stroke-linejoin="round"/>
<line id="Line 37" x1="540.485" y1="35.5149" x2="539.515" y2="132.515" stroke="#959595" stroke-width="3" stroke-linecap="round" stroke-linejoin="round"/>
<line id="Line 38" x1="552.789" y1="37.8598" x2="689.86" y2="68.2112" stroke="#959595" stroke-width="3" stroke-linecap="round" stroke-linejoin="round"/>
<line id="Line 39" x1="721.259" y1="84.1055" x2="641.105" y2="186.741" stroke="#959595" stroke-width="3" stroke-linecap="round" stroke-linejoin="round"/>
<line id="Line 40" x1="627.951" y1="198.55" x2="552.55" y2="155.049" stroke="#959595" stroke-width="3" stroke-linecap="round" stroke-linejoin="round"/>
<line id="Line 41" x1="363.766" y1="218.892" x2="393.892" y2="181.234" stroke="#959595" stroke-width="3" stroke-linecap="round" stroke-linejoin="round"/>
<line id="Line 31" x1="106.745" y1="210.014" x2="214.014" y2="161.255" stroke="#959595" stroke-width="3" stroke-linecap="round" stroke-linejoin="round"/>
</g>
<g id="birds" filter="url(#filter16_i)">
<g id="Vector_17">
<mask id="path-35-inside-1" fill="white">
<path d="M452.168 133.615L459.642 132.389C459.642 132.389 453.039 139.294 451.826 139.702C451.633 141.216 451.549 142.741 451.576 144.264C433.924 206.336 383.13 176.606 383.13 176.606C402.168 177.815 404.241 169.82 404.241 169.82C393.249 167.707 391.445 160.179 391.445 160.179C392.407 160.769 393.556 160.964 394.666 160.726C395.777 160.488 396.768 159.833 397.445 158.89C385.635 155.257 387.943 143.271 387.943 143.271C389.909 145.175 393.122 146.065 395.033 146.429C393.797 144.701 383.325 130.424 390.522 123.555C390.522 123.555 397.962 139.087 419.613 141.295L421.106 141.051C420.915 139.947 420.877 138.818 420.994 137.697C421.11 135.6 421.626 133.539 422.512 131.633C423.399 129.727 424.64 128.011 426.163 126.586C427.687 125.16 429.463 124.051 431.391 123.323C433.318 122.595 435.36 122.262 437.398 122.342C447.743 122.751 449.626 128.917 449.626 128.917L457.271 124.648C457.105 124.665 455.947 132.239 452.168 133.615Z"/>
</mask>
<path d="M452.168 133.615L459.642 132.389C459.642 132.389 453.039 139.294 451.826 139.702C451.633 141.216 451.549 142.741 451.576 144.264C433.924 206.336 383.13 176.606 383.13 176.606C402.168 177.815 404.241 169.82 404.241 169.82C393.249 167.707 391.445 160.179 391.445 160.179C392.407 160.769 393.556 160.964 394.666 160.726C395.777 160.488 396.768 159.833 397.445 158.89C385.635 155.257 387.943 143.271 387.943 143.271C389.909 145.175 393.122 146.065 395.033 146.429C393.797 144.701 383.325 130.424 390.522 123.555C390.522 123.555 397.962 139.087 419.613 141.295L421.106 141.051C420.915 139.947 420.877 138.818 420.994 137.697C421.11 135.6 421.626 133.539 422.512 131.633C423.399 129.727 424.64 128.011 426.163 126.586C427.687 125.16 429.463 124.051 431.391 123.323C433.318 122.595 435.36 122.262 437.398 122.342C447.743 122.751 449.626 128.917 449.626 128.917L457.271 124.648C457.105 124.665 455.947 132.239 452.168 133.615Z" fill="#00ACED" stroke="#101010" stroke-width="4" mask="url(#path-35-inside-1)"/>
</g>
<g id="Vector_18">
<mask id="path-36-inside-2" fill="white">
<path d="M135.422 173.351L142.801 171.83C142.801 171.83 136.605 178.999 135.422 179.456C135.312 180.978 135.312 182.507 135.422 184.03C121.25 246.878 69 219.118 69 219.118C88.0395 219.575 89.6653 211.491 89.6653 211.491C78.592 209.811 76.3792 202.334 76.3792 202.334C77.37 202.888 78.5252 203.038 79.618 202.757C80.7108 202.475 81.6624 201.782 82.2861 200.813C70.3006 197.621 71.9264 185.598 71.9264 185.598C73.9947 187.465 77.2372 188.193 79.152 188.501C77.8243 186.821 66.6065 172.941 73.3986 165.772C73.3986 165.772 81.6629 181.024 103.367 182.396L104.839 182.088C104.587 180.988 104.486 179.857 104.541 178.728C104.542 176.623 104.945 174.539 105.726 172.594C106.507 170.65 107.651 168.884 109.093 167.398C110.535 165.911 112.247 164.732 114.13 163.93C116.013 163.127 118.03 162.716 120.067 162.719C130.4 162.719 132.613 168.824 132.613 168.824L139.992 164.25C139.82 164.241 139.089 171.867 135.422 173.351Z"/>
</mask>
<path d="M135.422 173.351L142.801 171.83C142.801 171.83 136.605 178.999 135.422 179.456C135.312 180.978 135.312 182.507 135.422 184.03C121.25 246.878 69 219.118 69 219.118C88.0395 219.575 89.6653 211.491 89.6653 211.491C78.592 209.811 76.3792 202.334 76.3792 202.334C77.37 202.888 78.5252 203.038 79.618 202.757C80.7108 202.475 81.6624 201.782 82.2861 200.813C70.3006 197.621 71.9264 185.598 71.9264 185.598C73.9947 187.465 77.2372 188.193 79.152 188.501C77.8243 186.821 66.6065 172.941 73.3986 165.772C73.3986 165.772 81.6629 181.024 103.367 182.396L104.839 182.088C104.587 180.988 104.486 179.857 104.541 178.728C104.542 176.623 104.945 174.539 105.726 172.594C106.507 170.65 107.651 168.884 109.093 167.398C110.535 165.911 112.247 164.732 114.13 163.93C116.013 163.127 118.03 162.716 120.067 162.719C130.4 162.719 132.613 168.824 132.613 168.824L139.992 164.25C139.82 164.241 139.089 171.867 135.422 173.351Z" fill="#00ACED" stroke="#101010" stroke-width="4" mask="url(#path-36-inside-2)"/>
</g>
<g id="Vector_19">
<mask id="path-37-inside-3" fill="white">
<path d="M770.319 27.4366L782.358 24.9443C782.358 24.9443 772.242 36.6403 770.319 37.387C770.139 39.8727 770.139 42.3688 770.319 44.8545C747.197 147.392 661.934 102.093 661.934 102.093C692.995 102.84 695.651 89.6501 695.651 89.6501C677.587 86.9151 673.974 74.7151 673.974 74.7151C675.594 75.5966 677.472 75.8297 679.249 75.3699C681.025 74.9101 682.575 73.7896 683.602 72.2228C664.093 66.9956 666.748 47.3374 666.748 47.3374C670.117 50.3244 675.419 51.5659 678.544 52.0699C676.376 49.335 658.077 26.6805 669.151 14.9845C669.151 14.9845 682.636 39.8699 718.032 42.1102L720.444 41.6155C720.035 39.8215 719.874 37.9768 719.965 36.1362C719.965 29.2044 722.629 22.5566 727.372 17.6551C732.115 12.7536 738.547 10 745.255 10C762.109 10 765.721 19.9504 765.721 19.9504L777.761 12.4829C777.544 12.5016 776.343 24.907 770.319 27.4366Z"/>
</mask>
<path d="M770.319 27.4366L782.358 24.9443C782.358 24.9443 772.242 36.6403 770.319 37.387C770.139 39.8727 770.139 42.3688 770.319 44.8545C747.197 147.392 661.934 102.093 661.934 102.093C692.995 102.84 695.651 89.6501 695.651 89.6501C677.587 86.9151 673.974 74.7151 673.974 74.7151C675.594 75.5966 677.472 75.8297 679.249 75.3699C681.025 74.9101 682.575 73.7896 683.602 72.2228C664.093 66.9956 666.748 47.3374 666.748 47.3374C670.117 50.3244 675.419 51.5659 678.544 52.0699C676.376 49.335 658.077 26.6805 669.151 14.9845C669.151 14.9845 682.636 39.8699 718.032 42.1102L720.444 41.6155C720.035 39.8215 719.874 37.9768 719.965 36.1362C719.965 29.2044 722.629 22.5566 727.372 17.6551C732.115 12.7536 738.547 10 745.255 10C762.109 10 765.721 19.9504 765.721 19.9504L777.761 12.4829C777.544 12.5016 776.343 24.907 770.319 27.4366Z" fill="#00ACED" stroke="#101010" stroke-width="4" mask="url(#path-37-inside-3)"/>
</g>
<g id="Vector_20">
<mask id="path-38-inside-4" fill="white">
<path d="M558.814 17.2155L563.8 16.1887C563.8 16.1887 559.609 21.0332 558.814 21.3412C558.74 22.3697 558.74 23.4025 558.814 24.4309C549.24 66.9022 513.934 48.1402 513.934 48.1402C526.805 48.4482 527.898 42.9876 527.898 42.9876C520.419 41.8582 518.92 36.7989 518.92 36.7989C519.591 37.1665 520.369 37.2649 521.106 37.0754C521.843 36.8859 522.486 36.4218 522.912 35.7722C514.837 33.6066 515.93 25.5044 515.93 25.5044C517.37 26.5795 519.052 27.2544 520.816 27.4646C519.913 26.3351 512.335 16.9541 516.924 12.1096C516.924 12.1096 522.505 22.3774 537.173 23.3108L538.167 23.1054C537.998 22.3628 537.931 21.5992 537.968 20.8372C537.966 19.4141 538.235 18.0046 538.761 16.6892C539.286 15.3739 540.058 14.1787 541.031 13.172C542.004 12.1653 543.16 11.3669 544.433 10.8226C545.705 10.2783 547.069 9.99877 548.446 10C555.427 10 556.927 14.1258 556.927 14.1258L561.912 11.0361C561.804 11.0268 561.307 16.1887 558.814 17.2155Z"/>
</mask>
<path d="M558.814 17.2155L563.8 16.1887C563.8 16.1887 559.609 21.0332 558.814 21.3412C558.74 22.3697 558.74 23.4025 558.814 24.4309C549.24 66.9022 513.934 48.1402 513.934 48.1402C526.805 48.4482 527.898 42.9876 527.898 42.9876C520.419 41.8582 518.92 36.7989 518.92 36.7989C519.591 37.1665 520.369 37.2649 521.106 37.0754C521.843 36.8859 522.486 36.4218 522.912 35.7722C514.837 33.6066 515.93 25.5044 515.93 25.5044C517.37 26.5795 519.052 27.2544 520.816 27.4646C519.913 26.3351 512.335 16.9541 516.924 12.1096C516.924 12.1096 522.505 22.3774 537.173 23.3108L538.167 23.1054C537.998 22.3628 537.931 21.5992 537.968 20.8372C537.966 19.4141 538.235 18.0046 538.761 16.6892C539.286 15.3739 540.058 14.1787 541.031 13.172C542.004 12.1653 543.16 11.3669 544.433 10.8226C545.705 10.2783 547.069 9.99877 548.446 10C555.427 10 556.927 14.1258 556.927 14.1258L561.912 11.0361C561.804 11.0268 561.307 16.1887 558.814 17.2155Z" fill="#00ACED" stroke="#101010" stroke-width="4" mask="url(#path-38-inside-4)"/>
</g>
<g id="Vector_21">
<mask id="path-39-inside-5" fill="white">
<path d="M370.402 227.258L375.491 227.162C375.491 227.162 370.483 231.156 369.646 231.314C369.384 232.311 369.195 233.326 369.079 234.351C351.881 274.347 320.613 249.43 320.613 249.43C333.209 252.093 335.284 246.925 335.284 246.925C328.14 244.444 327.593 239.195 327.593 239.195C328.185 239.68 328.933 239.919 329.692 239.868C330.451 239.817 331.168 239.478 331.706 238.918C324.165 235.309 326.725 227.544 326.725 227.544C327.943 228.865 329.473 229.837 331.169 230.367C330.488 229.091 324.759 218.48 330.157 214.559C330.157 214.559 333.762 225.676 348.01 229.282L349.025 229.263C348.994 228.502 349.069 227.739 349.245 226.996C349.771 224.176 351.36 221.673 353.662 220.038C355.964 218.404 358.79 217.771 361.519 218.28C368.383 219.56 369.1 223.891 369.1 223.891L374.568 221.768C374.449 221.765 373.041 226.705 370.402 227.258Z"/>
</mask>
<path d="M370.402 227.258L375.491 227.162C375.491 227.162 370.483 231.156 369.646 231.314C369.384 232.311 369.195 233.326 369.079 234.351C351.881 274.347 320.613 249.43 320.613 249.43C333.209 252.093 335.284 246.925 335.284 246.925C328.14 244.444 327.593 239.195 327.593 239.195C328.185 239.68 328.933 239.919 329.692 239.868C330.451 239.817 331.168 239.478 331.706 238.918C324.165 235.309 326.725 227.544 326.725 227.544C327.943 228.865 329.473 229.837 331.169 230.367C330.488 229.091 324.759 218.48 330.157 214.559C330.157 214.559 333.762 225.676 348.01 229.282L349.025 229.263C348.994 228.502 349.069 227.739 349.245 226.996C349.771 224.176 351.36 221.673 353.662 220.038C355.964 218.404 358.79 217.771 361.519 218.28C368.383 219.56 369.1 223.891 369.1 223.891L374.568 221.768C374.449 221.765 373.041 226.705 370.402 227.258Z" fill="#535461" stroke="black" stroke-width="4" mask="url(#path-39-inside-5)"/>
</g>
<g id="Vector_22" opacity="0.3">
<mask id="path-40-inside-6" fill="white">
<path d="M562.638 127.51L567.623 126.483C567.623 126.483 563.478 131.347 562.638 131.627C562.563 132.655 562.563 133.688 562.638 134.716C553.064 177.188 517.757 158.426 517.757 158.426C530.628 158.734 531.721 153.273 531.721 153.273C524.242 152.144 522.743 147.084 522.743 147.084C523.414 147.452 524.192 147.55 524.929 147.361C525.666 147.171 526.309 146.707 526.735 146.058C518.66 143.892 519.753 135.79 519.753 135.79C521.193 136.865 522.875 137.54 524.64 137.75C523.736 136.621 516.159 127.24 520.747 122.395C520.747 122.395 526.329 132.663 540.997 133.596L541.99 133.391C541.821 132.648 541.754 131.885 541.792 131.123C541.792 128.253 542.894 125.502 544.858 123.473C546.821 121.444 549.483 120.304 552.26 120.304C559.241 120.304 560.741 124.43 560.741 124.43L565.726 121.34C565.672 121.322 565.166 126.474 562.638 127.51Z"/>
</mask>
<path d="M562.638 127.51L567.623 126.483C567.623 126.483 563.478 131.347 562.638 131.627C562.563 132.655 562.563 133.688 562.638 134.716C553.064 177.188 517.757 158.426 517.757 158.426C530.628 158.734 531.721 153.273 531.721 153.273C524.242 152.144 522.743 147.084 522.743 147.084C523.414 147.452 524.192 147.55 524.929 147.361C525.666 147.171 526.309 146.707 526.735 146.058C518.66 143.892 519.753 135.79 519.753 135.79C521.193 136.865 522.875 137.54 524.64 137.75C523.736 136.621 516.159 127.24 520.747 122.395C520.747 122.395 526.329 132.663 540.997 133.596L541.99 133.391C541.821 132.648 541.754 131.885 541.792 131.123C541.792 128.253 542.894 125.502 544.858 123.473C546.821 121.444 549.483 120.304 552.26 120.304C559.241 120.304 560.741 124.43 560.741 124.43L565.726 121.34C565.672 121.322 565.166 126.474 562.638 127.51Z" fill="#00ACED" stroke="#101010" stroke-width="4" mask="url(#path-40-inside-6)"/>
</g>
<g id="Vector_23">
<mask id="path-41-inside-7" fill="white">
<path d="M464.037 310.852L472.934 309.022C472.934 309.022 465.455 317.616 464.037 318.157C463.904 319.982 463.904 321.815 464.037 323.64C446.949 398.945 383.934 365.681 383.934 365.681C406.897 366.231 408.858 356.546 408.858 356.546C395.505 354.533 392.839 345.58 392.839 345.58C394.037 346.229 395.426 346.401 396.74 346.063C398.055 345.725 399.201 344.902 399.961 343.75C385.546 339.914 387.499 325.447 387.499 325.447C389.994 327.643 393.908 328.55 396.218 328.916C394.613 326.903 381.09 310.271 389.243 301.684C389.243 301.684 399.209 319.988 425.381 321.579L427.163 321.213C426.86 319.897 426.74 318.544 426.807 317.194C426.806 314.673 427.288 312.177 428.227 309.848C429.166 307.519 430.543 305.402 432.279 303.62C434.015 301.837 436.076 300.423 438.345 299.459C440.613 298.495 443.044 297.999 445.499 298C457.961 298 460.627 305.313 460.627 305.313L469.555 299.902C469.377 299.902 468.486 309.03 464.037 310.852Z"/>
</mask>
<path d="M464.037 310.852L472.934 309.022C472.934 309.022 465.455 317.616 464.037 318.157C463.904 319.982 463.904 321.815 464.037 323.64C446.949 398.945 383.934 365.681 383.934 365.681C406.897 366.231 408.858 356.546 408.858 356.546C395.505 354.533 392.839 345.58 392.839 345.58C394.037 346.229 395.426 346.401 396.74 346.063C398.055 345.725 399.201 344.902 399.961 343.75C385.546 339.914 387.499 325.447 387.499 325.447C389.994 327.643 393.908 328.55 396.218 328.916C394.613 326.903 381.09 310.271 389.243 301.684C389.243 301.684 399.209 319.988 425.381 321.579L427.163 321.213C426.86 319.897 426.74 318.544 426.807 317.194C426.806 314.673 427.288 312.177 428.227 309.848C429.166 307.519 430.543 305.402 432.279 303.62C434.015 301.837 436.076 300.423 438.345 299.459C440.613 298.495 443.044 297.999 445.499 298C457.961 298 460.627 305.313 460.627 305.313L469.555 299.902C469.377 299.902 468.486 309.03 464.037 310.852Z" fill="#1DA1F2" stroke="#101010" stroke-width="4" mask="url(#path-41-inside-7)"/>
</g>
<g id="Vector_24">
<mask id="path-42-inside-8" fill="white">
<path d="M395.111 34.736L400.061 33.7093C400.061 33.7093 395.87 38.5538 395.075 38.8618C395.001 39.8903 395.001 40.923 395.075 41.9515C385.501 84.4228 350.195 65.6608 350.195 65.6608C363.065 65.9688 364.158 60.5082 364.158 60.5082C356.68 59.3787 355.18 54.3195 355.18 54.3195C355.851 54.687 356.63 54.7855 357.367 54.596C358.104 54.4065 358.747 53.9423 359.173 53.2927C351.098 51.1272 352.191 43.0249 352.191 43.0249C353.63 44.1 355.313 44.775 357.077 44.9852C356.174 43.8557 348.596 34.4747 353.184 29.6301C353.184 29.6301 358.766 39.8979 373.434 40.8314L374.428 40.626C374.258 39.8834 374.191 39.1197 374.229 38.3578C374.227 36.9347 374.496 35.5251 375.022 34.2098C375.547 32.8945 376.319 31.6992 377.292 30.6925C378.265 29.6858 379.421 28.8875 380.693 28.3432C381.966 27.7989 383.329 27.5193 384.706 27.5206C391.688 27.5206 393.187 31.6464 393.187 31.6464L398.173 28.5567C398.11 28.5567 397.613 33.7093 395.111 34.736Z"/>
</mask>
<path d="M395.111 34.736L400.061 33.7093C400.061 33.7093 395.87 38.5538 395.075 38.8618C395.001 39.8903 395.001 40.923 395.075 41.9515C385.501 84.4228 350.195 65.6608 350.195 65.6608C363.065 65.9688 364.158 60.5082 364.158 60.5082C356.68 59.3787 355.18 54.3195 355.18 54.3195C355.851 54.687 356.63 54.7855 357.367 54.596C358.104 54.4065 358.747 53.9423 359.173 53.2927C351.098 51.1272 352.191 43.0249 352.191 43.0249C353.63 44.1 355.313 44.775 357.077 44.9852C356.174 43.8557 348.596 34.4747 353.184 29.6301C353.184 29.6301 358.766 39.8979 373.434 40.8314L374.428 40.626C374.258 39.8834 374.191 39.1197 374.229 38.3578C374.227 36.9347 374.496 35.5251 375.022 34.2098C375.547 32.8945 376.319 31.6992 377.292 30.6925C378.265 29.6858 379.421 28.8875 380.693 28.3432C381.966 27.7989 383.329 27.5193 384.706 27.5206C391.688 27.5206 393.187 31.6464 393.187 31.6464L398.173 28.5567C398.11 28.5567 397.613 33.7093 395.111 34.736Z" fill="#1DA1F2" stroke="#101010" stroke-width="4" mask="url(#path-42-inside-8)"/>
</g>
<g id="Vector_25">
<mask id="path-43-inside-9" fill="white">
<path d="M242.515 149.157L247.5 148.13C247.5 148.13 243.31 152.974 242.515 153.282C242.44 154.311 242.44 155.344 242.515 156.372C232.941 198.843 197.634 180.081 197.634 180.081C210.505 180.389 211.598 174.929 211.598 174.929C204.119 173.799 202.62 168.74 202.62 168.74C203.291 169.108 204.07 169.206 204.806 169.017C205.543 168.827 206.186 168.363 206.612 167.713C198.538 165.548 199.631 157.445 199.631 157.445C201.07 158.521 202.753 159.196 204.517 159.406C203.614 158.276 196.036 148.895 200.624 144.051C200.624 144.051 206.206 154.318 220.874 155.252L221.867 155.047C221.698 154.304 221.631 153.54 221.669 152.778C221.669 149.909 222.772 147.157 224.735 145.128C226.698 143.1 229.361 141.96 232.137 141.96C239.119 141.96 240.618 146.086 240.618 146.086L245.604 142.996C245.504 142.968 245.008 148.148 242.515 149.157Z"/>
</mask>
<path d="M242.515 149.157L247.5 148.13C247.5 148.13 243.31 152.974 242.515 153.282C242.44 154.311 242.44 155.344 242.515 156.372C232.941 198.843 197.634 180.081 197.634 180.081C210.505 180.389 211.598 174.929 211.598 174.929C204.119 173.799 202.62 168.74 202.62 168.74C203.291 169.108 204.07 169.206 204.806 169.017C205.543 168.827 206.186 168.363 206.612 167.713C198.538 165.548 199.631 157.445 199.631 157.445C201.07 158.521 202.753 159.196 204.517 159.406C203.614 158.276 196.036 148.895 200.624 144.051C200.624 144.051 206.206 154.318 220.874 155.252L221.867 155.047C221.698 154.304 221.631 153.54 221.669 152.778C221.669 149.909 222.772 147.157 224.735 145.128C226.698 143.1 229.361 141.96 232.137 141.96C239.119 141.96 240.618 146.086 240.618 146.086L245.604 142.996C245.504 142.968 245.008 148.148 242.515 149.157Z" fill="#1DA1F2" stroke="#101010" stroke-width="4" mask="url(#path-43-inside-9)"/>
</g>
<g id="Vector_26" opacity="0.3">
<mask id="path-44-inside-10" fill="white">
<path d="M200.624 74.9391L205.61 73.9123C205.61 73.9123 201.419 78.7569 200.624 79.0649C200.55 80.0933 200.55 81.1261 200.624 82.1546C191.05 124.626 155.744 105.864 155.744 105.864C168.614 106.172 169.707 100.711 169.707 100.711C162.229 99.5818 160.729 94.5226 160.729 94.5226C161.4 94.8901 162.179 94.9885 162.916 94.799C163.653 94.6095 164.296 94.1454 164.722 93.4958C156.647 91.3302 157.74 83.228 157.74 83.228C159.179 84.3031 160.862 84.9781 162.626 85.1882C161.723 84.0588 154.145 74.6777 158.733 69.8332C158.733 69.8332 164.315 80.101 178.983 81.0344L179.977 80.8291C179.807 80.0865 179.74 79.3228 179.778 78.5608C179.778 75.6916 180.881 72.9399 182.844 70.911C184.807 68.8821 187.47 67.7423 190.246 67.7423C197.228 67.7423 198.727 71.8681 198.727 71.8681L203.713 68.7784C203.614 68.7504 203.162 73.9123 200.624 74.9391Z"/>
</mask>
<g filter="url(#filter17_i)">
<path d="M200.624 74.9391L205.61 73.9123C205.61 73.9123 201.419 78.7569 200.624 79.0649C200.55 80.0933 200.55 81.1261 200.624 82.1546C191.05 124.626 155.744 105.864 155.744 105.864C168.614 106.172 169.707 100.711 169.707 100.711C162.229 99.5818 160.729 94.5226 160.729 94.5226C161.4 94.8901 162.179 94.9885 162.916 94.799C163.653 94.6095 164.296 94.1454 164.722 93.4958C156.647 91.3302 157.74 83.228 157.74 83.228C159.179 84.3031 160.862 84.9781 162.626 85.1882C161.723 84.0588 154.145 74.6777 158.733 69.8332C158.733 69.8332 164.315 80.101 178.983 81.0344L179.977 80.8291C179.807 80.0865 179.74 79.3228 179.778 78.5608C179.778 75.6916 180.881 72.9399 182.844 70.911C184.807 68.8821 187.47 67.7423 190.246 67.7423C197.228 67.7423 198.727 71.8681 198.727 71.8681L203.713 68.7784C203.614 68.7504 203.162 73.9123 200.624 74.9391Z" fill="#1DA1F2"/>
</g>
<path d="M200.624 74.9391L205.61 73.9123C205.61 73.9123 201.419 78.7569 200.624 79.0649C200.55 80.0933 200.55 81.1261 200.624 82.1546C191.05 124.626 155.744 105.864 155.744 105.864C168.614 106.172 169.707 100.711 169.707 100.711C162.229 99.5818 160.729 94.5226 160.729 94.5226C161.4 94.8901 162.179 94.9885 162.916 94.799C163.653 94.6095 164.296 94.1454 164.722 93.4958C156.647 91.3302 157.74 83.228 157.74 83.228C159.179 84.3031 160.862 84.9781 162.626 85.1882C161.723 84.0588 154.145 74.6777 158.733 69.8332C158.733 69.8332 164.315 80.101 178.983 81.0344L179.977 80.8291C179.807 80.0865 179.74 79.3228 179.778 78.5608C179.778 75.6916 180.881 72.9399 182.844 70.911C184.807 68.8821 187.47 67.7423 190.246 67.7423C197.228 67.7423 198.727 71.8681 198.727 71.8681L203.713 68.7784C203.614 68.7504 203.162 73.9123 200.624 74.9391Z" stroke="#101010" stroke-width="4" mask="url(#path-44-inside-10)"/>
</g>
<g id="Vector_27">
<mask id="path-45-inside-11" fill="white">
<path d="M376.162 389.32L381.148 388.293C381.148 388.293 376.957 393.138 376.162 393.446C376.088 394.474 376.088 395.507 376.162 396.536C366.588 439.007 331.282 420.245 331.282 420.245C344.152 420.553 345.245 415.092 345.245 415.092C337.767 413.963 336.267 408.904 336.267 408.904C336.938 409.271 337.717 409.37 338.454 409.18C339.19 408.991 339.834 408.527 340.26 407.877C332.185 405.711 333.278 397.609 333.278 397.609C334.717 398.684 336.4 399.359 338.164 399.569C337.261 398.44 329.683 389.059 334.271 384.214C334.271 384.214 339.853 394.482 354.521 395.416L355.515 395.21C355.345 394.468 355.278 393.704 355.316 392.942C355.316 390.073 356.419 387.321 358.382 385.292C360.345 383.263 363.008 382.123 365.784 382.123C372.766 382.123 374.265 386.249 374.265 386.249L379.251 383.16C379.161 383.141 378.655 388.293 376.162 389.32Z"/>
</mask>
<path d="M376.162 389.32L381.148 388.293C381.148 388.293 376.957 393.138 376.162 393.446C376.088 394.474 376.088 395.507 376.162 396.536C366.588 439.007 331.282 420.245 331.282 420.245C344.152 420.553 345.245 415.092 345.245 415.092C337.767 413.963 336.267 408.904 336.267 408.904C336.938 409.271 337.717 409.37 338.454 409.18C339.19 408.991 339.834 408.527 340.26 407.877C332.185 405.711 333.278 397.609 333.278 397.609C334.717 398.684 336.4 399.359 338.164 399.569C337.261 398.44 329.683 389.059 334.271 384.214C334.271 384.214 339.853 394.482 354.521 395.416L355.515 395.21C355.345 394.468 355.278 393.704 355.316 392.942C355.316 390.073 356.419 387.321 358.382 385.292C360.345 383.263 363.008 382.123 365.784 382.123C372.766 382.123 374.265 386.249 374.265 386.249L379.251 383.16C379.161 383.141 378.655 388.293 376.162 389.32Z" fill="#1DA1F2" stroke="black" stroke-width="4" mask="url(#path-45-inside-11)"/>
</g>
<g id="Vector_28">
<mask id="path-46-inside-12" fill="white">
<path d="M667.201 165.604L677.344 163.503C677.344 163.503 668.8 173.389 667.174 174.014C667.022 176.114 667.022 178.224 667.174 180.324C647.638 266.956 575.616 228.685 575.616 228.685C601.891 229.357 604.131 218.156 604.131 218.156C588.866 215.841 585.823 205.536 585.823 205.536C587.192 206.272 588.775 206.464 590.272 206.077C591.769 205.691 593.078 204.751 593.952 203.436C577.468 199.021 579.708 182.406 579.708 182.406C582.553 184.926 587.033 185.981 589.643 186.401C587.837 184.086 572.347 164.932 581.704 155.065C581.704 155.065 593.103 176.096 623.008 177.981L625.04 177.561C624.69 176.033 624.553 174.462 624.633 172.894C624.633 167.039 626.884 161.424 630.89 157.284C634.896 153.144 640.329 150.818 645.994 150.818C660.238 150.818 663.291 159.219 663.291 159.219L673.461 152.909C673.307 152.984 672.286 163.503 667.201 165.604Z"/>
</mask>
<path d="M667.201 165.604L677.344 163.503C677.344 163.503 668.8 173.389 667.174 174.014C667.022 176.114 667.022 178.224 667.174 180.324C647.638 266.956 575.616 228.685 575.616 228.685C601.891 229.357 604.131 218.156 604.131 218.156C588.866 215.841 585.823 205.536 585.823 205.536C587.192 206.272 588.775 206.464 590.272 206.077C591.769 205.691 593.078 204.751 593.952 203.436C577.468 199.021 579.708 182.406 579.708 182.406C582.553 184.926 587.033 185.981 589.643 186.401C587.837 184.086 572.347 164.932 581.704 155.065C581.704 155.065 593.103 176.096 623.008 177.981L625.04 177.561C624.69 176.033 624.553 174.462 624.633 172.894C624.633 167.039 626.884 161.424 630.89 157.284C634.896 153.144 640.329 150.818 645.994 150.818C660.238 150.818 663.291 159.219 663.291 159.219L673.461 152.909C673.307 152.984 672.286 163.503 667.201 165.604Z" fill="#535461" stroke="#101010" stroke-width="4" mask="url(#path-46-inside-12)"/>
</g>
<g id="Vector_29">
<mask id="path-47-inside-13" fill="white">
<path d="M263.261 250.126L273.431 248.026C273.431 248.026 264.887 257.911 263.261 258.537C263.109 260.637 263.109 262.746 263.261 264.847C243.725 351.479 171.703 313.208 171.703 313.208C197.951 313.843 200.19 302.697 200.19 302.697C184.926 300.382 181.883 290.077 181.883 290.077C183.252 290.813 184.835 291.006 186.332 290.619C187.829 290.232 189.138 289.292 190.011 287.977C173.528 283.562 175.768 266.947 175.768 266.947C178.613 269.467 183.093 270.522 185.703 270.942C183.897 268.627 168.407 249.473 177.764 239.606C177.764 239.606 189.162 260.637 219.067 262.522L221.1 262.102C220.75 260.574 220.613 259.003 220.693 257.435C220.693 251.58 222.944 245.965 226.95 241.825C230.956 237.685 236.389 235.359 242.054 235.359C256.298 235.359 259.35 243.76 259.35 243.76L269.52 237.45C269.367 237.506 268.346 248.026 263.261 250.126Z"/>
</mask>
<path d="M263.261 250.126L273.431 248.026C273.431 248.026 264.887 257.911 263.261 258.537C263.109 260.637 263.109 262.746 263.261 264.847C243.725 351.479 171.703 313.208 171.703 313.208C197.951 313.843 200.19 302.697 200.19 302.697C184.926 300.382 181.883 290.077 181.883 290.077C183.252 290.813 184.835 291.006 186.332 290.619C187.829 290.232 189.138 289.292 190.011 287.977C173.528 283.562 175.768 266.947 175.768 266.947C178.613 269.467 183.093 270.522 185.703 270.942C183.897 268.627 168.407 249.473 177.764 239.606C177.764 239.606 189.162 260.637 219.067 262.522L221.1 262.102C220.75 260.574 220.613 259.003 220.693 257.435C220.693 251.58 222.944 245.965 226.95 241.825C230.956 237.685 236.389 235.359 242.054 235.359C256.298 235.359 259.35 243.76 259.35 243.76L269.52 237.45C269.367 237.506 268.346 248.026 263.261 250.126Z" fill="#535461" stroke="#101010" stroke-width="4" mask="url(#path-47-inside-13)"/>
</g>
</g>
</g>
<g id="HNC" filter="url(#filter18_d)">
<path d="M485.164 634.887L487.815 634.318L487.833 641.604L495.624 639.932L495.606 632.645L498.234 632.081L498.267 649.502L495.639 650.067L495.634 642.384L487.844 644.057L487.848 651.739L485.197 652.308L485.164 634.887ZM506.631 630.279L508.696 629.836L517.587 640.495L517.548 627.96L520.199 627.391L520.227 644.789L518.068 645.252L509.284 634.864L509.316 647.131L506.664 647.7L506.631 630.279ZM535.212 641.719C534.274 641.921 533.387 641.907 532.552 641.677C531.73 641.428 530.998 641.028 530.356 640.479C529.714 639.929 529.17 639.261 528.723 638.473C528.275 637.685 527.954 636.838 527.76 635.93C527.514 634.789 527.51 633.587 527.747 632.325C527.98 631.048 528.426 629.847 529.085 628.724C529.74 627.585 530.591 626.592 531.636 625.746C532.698 624.896 533.925 624.322 535.317 624.023C536.756 623.714 537.994 623.8 539.03 624.282C540.066 624.763 540.841 625.513 541.354 626.532L539.305 628.42C539.088 627.943 538.825 627.558 538.516 627.264C538.208 626.97 537.867 626.757 537.495 626.624C537.139 626.488 536.764 626.421 536.372 626.423C535.976 626.41 535.591 626.444 535.216 626.524C534.261 626.729 533.442 627.142 532.757 627.764C532.072 628.385 531.525 629.116 531.117 629.957C530.72 630.778 530.458 631.653 530.33 632.58C530.217 633.505 530.248 634.374 530.423 635.187C530.564 635.844 530.784 636.451 531.084 637.009C531.38 637.551 531.741 638.013 532.167 638.396C532.59 638.764 533.064 639.03 533.591 639.195C534.129 639.342 534.704 639.349 535.314 639.218C535.689 639.138 536.078 639.005 536.48 638.821C536.895 638.617 537.282 638.362 537.642 638.056C538.014 637.731 538.35 637.355 538.652 636.931C538.969 636.503 539.232 636.013 539.441 635.46L541.632 636.291C541.391 636.997 541.041 637.653 540.582 638.259C540.119 638.85 539.595 639.379 539.008 639.849C538.422 640.318 537.795 640.715 537.128 641.038C536.477 641.358 535.838 641.585 535.212 641.719Z" fill="black"/>
</g>
</g>
<defs>
<filter id="filter0_d" x="343.803" y="323.673" width="216.099" height="416.454" filterUnits="userSpaceOnUse" color-interpolation-filters="sRGB">
<feFlood flood-opacity="0" result="BackgroundImageFix"/>
<feColorMatrix in="SourceAlpha" type="matrix" values="0 0 0 0 0 0 0 0 0 0 0 0 0 0 0 0 0 0 127 0"/>
<feOffset dy="10"/>
<feGaussianBlur stdDeviation="2.5"/>
<feColorMatrix type="matrix" values="0 0 0 0 0 0 0 0 0 0 0 0 0 0 0 0 0 0 0.25 0"/>
<feBlend mode="normal" in2="BackgroundImageFix" result="effect1_dropShadow"/>
<feBlend mode="normal" in="SourceGraphic" in2="effect1_dropShadow" result="shape"/>
</filter>
<filter id="filter1_d" x="343.803" y="323.673" width="216.099" height="416.454" filterUnits="userSpaceOnUse" color-interpolation-filters="sRGB">
<feFlood flood-opacity="0" result="BackgroundImageFix"/>
<feColorMatrix in="SourceAlpha" type="matrix" values="0 0 0 0 0 0 0 0 0 0 0 0 0 0 0 0 0 0 127 0"/>
<feOffset dy="10"/>
<feGaussianBlur stdDeviation="2.5"/>
<feColorMatrix type="matrix" values="0 0 0 0 0 0 0 0 0 0 0 0 0 0 0 0 0 0 0.25 0"/>
<feBlend mode="normal" in2="BackgroundImageFix" result="effect1_dropShadow"/>
<feBlend mode="normal" in="SourceGraphic" in2="effect1_dropShadow" result="shape"/>
</filter>
<filter id="filter2_d" x="137.704" y="323.673" width="216.099" height="416.454" filterUnits="userSpaceOnUse" color-interpolation-filters="sRGB">
<feFlood flood-opacity="0" result="BackgroundImageFix"/>
<feColorMatrix in="SourceAlpha" type="matrix" values="0 0 0 0 0 0 0 0 0 0 0 0 0 0 0 0 0 0 127 0"/>
<feOffset dy="10"/>
<feGaussianBlur stdDeviation="2.5"/>
<feColorMatrix type="matrix" values="0 0 0 0 0 0 0 0 0 0 0 0 0 0 0 0 0 0 0.25 0"/>
<feBlend mode="normal" in2="BackgroundImageFix" result="effect1_dropShadow"/>
<feBlend mode="normal" in="SourceGraphic" in2="effect1_dropShadow" result="shape"/>
</filter>
<filter id="filter3_d" x="137.704" y="321.903" width="216.099" height="418.223" filterUnits="userSpaceOnUse" color-interpolation-filters="sRGB">
<feFlood flood-opacity="0" result="BackgroundImageFix"/>
<feColorMatrix in="SourceAlpha" type="matrix" values="0 0 0 0 0 0 0 0 0 0 0 0 0 0 0 0 0 0 127 0"/>
<feOffset dy="10"/>
<feGaussianBlur stdDeviation="2.5"/>
<feColorMatrix type="matrix" values="0 0 0 0 0 0 0 0 0 0 0 0 0 0 0 0 0 0 0.25 0"/>
<feBlend mode="normal" in2="BackgroundImageFix" result="effect1_dropShadow"/>
<feBlend mode="normal" in="SourceGraphic" in2="effect1_dropShadow" result="shape"/>
</filter>
<filter id="filter4_d" x="342.081" y="232.229" width="324.639" height="159.515" filterUnits="userSpaceOnUse" color-interpolation-filters="sRGB">
<feFlood flood-opacity="0" result="BackgroundImageFix"/>
<feColorMatrix in="SourceAlpha" type="matrix" values="0 0 0 0 0 0 0 0 0 0 0 0 0 0 0 0 0 0 127 0"/>
<feOffset dy="10"/>
<feGaussianBlur stdDeviation="2.5"/>
<feColorMatrix type="matrix" values="0 0 0 0 0 0 0 0 0 0 0 0 0 0 0 0 0 0 0.25 0"/>
<feBlend mode="normal" in2="BackgroundImageFix" result="effect1_dropShadow"/>
<feBlend mode="normal" in="SourceGraphic" in2="effect1_dropShadow" result="shape"/>
</filter>
<filter id="filter5_d" x="33.6769" y="234.008" width="321.838" height="157.735" filterUnits="userSpaceOnUse" color-interpolation-filters="sRGB">
<feFlood flood-opacity="0" result="BackgroundImageFix"/>
<feColorMatrix in="SourceAlpha" type="matrix" values="0 0 0 0 0 0 0 0 0 0 0 0 0 0 0 0 0 0 127 0"/>
<feOffset dy="10"/>
<feGaussianBlur stdDeviation="2.5"/>
<feColorMatrix type="matrix" values="0 0 0 0 0 0 0 0 0 0 0 0 0 0 0 0 0 0 0.25 0"/>
<feBlend mode="normal" in2="BackgroundImageFix" result="effect1_dropShadow"/>
<feBlend mode="normal" in="SourceGraphic" in2="effect1_dropShadow" result="shape"/>
</filter>
<filter id="filter6_d" x="31.9649" y="232.229" width="324.416" height="159.515" filterUnits="userSpaceOnUse" color-interpolation-filters="sRGB">
<feFlood flood-opacity="0" result="BackgroundImageFix"/>
<feColorMatrix in="SourceAlpha" type="matrix" values="0 0 0 0 0 0 0 0 0 0 0 0 0 0 0 0 0 0 127 0"/>
<feOffset dy="10"/>
<feGaussianBlur stdDeviation="2.5"/>
<feColorMatrix type="matrix" values="0 0 0 0 0 0 0 0 0 0 0 0 0 0 0 0 0 0 0.25 0"/>
<feBlend mode="normal" in2="BackgroundImageFix" result="effect1_dropShadow"/>
<feBlend mode="normal" in="SourceGraphic" in2="effect1_dropShadow" result="shape"/>
</filter>
<filter id="filter7_d" x="137.704" y="374.974" width="218.881" height="365.153" filterUnits="userSpaceOnUse" color-interpolation-filters="sRGB">
<feFlood flood-opacity="0" result="BackgroundImageFix"/>
<feColorMatrix in="SourceAlpha" type="matrix" values="0 0 0 0 0 0 0 0 0 0 0 0 0 0 0 0 0 0 127 0"/>
<feOffset dy="10"/>
<feGaussianBlur stdDeviation="2.5"/>
<feColorMatrix type="matrix" values="0 0 0 0 0 0 0 0 0 0 0 0 0 0 0 0 0 0 0.25 0"/>
<feBlend mode="normal" in2="BackgroundImageFix" result="effect1_dropShadow"/>
<feBlend mode="normal" in="SourceGraphic" in2="effect1_dropShadow" result="shape"/>
</filter>
<filter id="filter8_d" x="343.803" y="374.974" width="216.099" height="365.153" filterUnits="userSpaceOnUse" color-interpolation-filters="sRGB">
<feFlood flood-opacity="0" result="BackgroundImageFix"/>
<feColorMatrix in="SourceAlpha" type="matrix" values="0 0 0 0 0 0 0 0 0 0 0 0 0 0 0 0 0 0 127 0"/>
<feOffset dy="10"/>
<feGaussianBlur stdDeviation="2.5"/>
<feColorMatrix type="matrix" values="0 0 0 0 0 0 0 0 0 0 0 0 0 0 0 0 0 0 0.25 0"/>
<feBlend mode="normal" in2="BackgroundImageFix" result="effect1_dropShadow"/>
<feBlend mode="normal" in="SourceGraphic" in2="effect1_dropShadow" result="shape"/>
</filter>
<filter id="filter9_d" x="343.803" y="374.974" width="216.099" height="365.153" filterUnits="userSpaceOnUse" color-interpolation-filters="sRGB">
<feFlood flood-opacity="0" result="BackgroundImageFix"/>
<feColorMatrix in="SourceAlpha" type="matrix" values="0 0 0 0 0 0 0 0 0 0 0 0 0 0 0 0 0 0 127 0"/>
<feOffset dy="10"/>
<feGaussianBlur stdDeviation="2.5"/>
<feColorMatrix type="matrix" values="0 0 0 0 0 0 0 0 0 0 0 0 0 0 0 0 0 0 0.25 0"/>
<feBlend mode="normal" in2="BackgroundImageFix" result="effect1_dropShadow"/>
<feBlend mode="normal" in="SourceGraphic" in2="effect1_dropShadow" result="shape"/>
</filter>
<filter id="filter10_d" x="467.888" y="547.819" width="92.0133" height="135.437" filterUnits="userSpaceOnUse" color-interpolation-filters="sRGB">
<feFlood flood-opacity="0" result="BackgroundImageFix"/>
<feColorMatrix in="SourceAlpha" type="matrix" values="0 0 0 0 0 0 0 0 0 0 0 0 0 0 0 0 0 0 127 0"/>
<feOffset dy="10"/>
<feGaussianBlur stdDeviation="2.5"/>
<feColorMatrix type="matrix" values="0 0 0 0 0 0 0 0 0 0 0 0 0 0 0 0 0 0 0.25 0"/>
<feBlend mode="normal" in2="BackgroundImageFix" result="effect1_dropShadow"/>
<feBlend mode="normal" in="SourceGraphic" in2="effect1_dropShadow" result="shape"/>
</filter>
<filter id="filter11_d" x="135.009" y="378.875" width="218.258" height="194.54" filterUnits="userSpaceOnUse" color-interpolation-filters="sRGB">
<feFlood flood-opacity="0" result="BackgroundImageFix"/>
<feColorMatrix in="SourceAlpha" type="matrix" values="0 0 0 0 0 0 0 0 0 0 0 0 0 0 0 0 0 0 127 0"/>
<feOffset dy="10"/>
<feGaussianBlur stdDeviation="2.5"/>
<feColorMatrix type="matrix" values="0 0 0 0 0 0 0 0 0 0 0 0 0 0 0 0 0 0 0.25 0"/>
<feBlend mode="normal" in2="BackgroundImageFix" result="effect1_dropShadow"/>
<feBlend mode="normal" in="SourceGraphic" in2="effect1_dropShadow" result="shape"/>
</filter>
<filter id="filter12_d" x="343.268" y="378.875" width="218.249" height="194.54" filterUnits="userSpaceOnUse" color-interpolation-filters="sRGB">
<feFlood flood-opacity="0" result="BackgroundImageFix"/>
<feColorMatrix in="SourceAlpha" type="matrix" values="0 0 0 0 0 0 0 0 0 0 0 0 0 0 0 0 0 0 127 0"/>
<feOffset dy="10"/>
<feGaussianBlur stdDeviation="2.5"/>
<feColorMatrix type="matrix" values="0 0 0 0 0 0 0 0 0 0 0 0 0 0 0 0 0 0 0.25 0"/>
<feBlend mode="normal" in2="BackgroundImageFix" result="effect1_dropShadow"/>
<feBlend mode="normal" in="SourceGraphic" in2="effect1_dropShadow" result="shape"/>
</filter>
<filter id="filter13_d" x="31.9649" y="374.974" width="321.838" height="158.851" filterUnits="userSpaceOnUse" color-interpolation-filters="sRGB">
<feFlood flood-opacity="0" result="BackgroundImageFix"/>
<feColorMatrix in="SourceAlpha" type="matrix" values="0 0 0 0 0 0 0 0 0 0 0 0 0 0 0 0 0 0 127 0"/>
<feOffset dy="10"/>
<feGaussianBlur stdDeviation="2.5"/>
<feColorMatrix type="matrix" values="0 0 0 0 0 0 0 0 0 0 0 0 0 0 0 0 0 0 0.25 0"/>
<feBlend mode="normal" in2="BackgroundImageFix" result="effect1_dropShadow"/>
<feBlend mode="normal" in="SourceGraphic" in2="effect1_dropShadow" result="shape"/>
</filter>
<filter id="filter14_d" x="343.803" y="374.974" width="322.918" height="158.851" filterUnits="userSpaceOnUse" color-interpolation-filters="sRGB">
<feFlood flood-opacity="0" result="BackgroundImageFix"/>
<feColorMatrix in="SourceAlpha" type="matrix" values="0 0 0 0 0 0 0 0 0 0 0 0 0 0 0 0 0 0 127 0"/>
<feOffset dy="10"/>
<feGaussianBlur stdDeviation="2.5"/>
<feColorMatrix type="matrix" values="0 0 0 0 0 0 0 0 0 0 0 0 0 0 0 0 0 0 0.25 0"/>
<feBlend mode="normal" in2="BackgroundImageFix" result="effect1_dropShadow"/>
<feBlend mode="normal" in="SourceGraphic" in2="effect1_dropShadow" result="shape"/>
</filter>
<filter id="filter15_d" x="343.803" y="374.974" width="322.918" height="158.851" filterUnits="userSpaceOnUse" color-interpolation-filters="sRGB">
<feFlood flood-opacity="0" result="BackgroundImageFix"/>
<feColorMatrix in="SourceAlpha" type="matrix" values="0 0 0 0 0 0 0 0 0 0 0 0 0 0 0 0 0 0 127 0"/>
<feOffset dy="10"/>
<feGaussianBlur stdDeviation="2.5"/>
<feColorMatrix type="matrix" values="0 0 0 0 0 0 0 0 0 0 0 0 0 0 0 0 0 0 0.25 0"/>
<feBlend mode="normal" in2="BackgroundImageFix" result="effect1_dropShadow"/>
<feBlend mode="normal" in="SourceGraphic" in2="effect1_dropShadow" result="shape"/>
</filter>
<filter id="filter16_i" x="69" y="10" width="713.358" height="418.373" filterUnits="userSpaceOnUse" color-interpolation-filters="sRGB">
<feFlood flood-opacity="0" result="BackgroundImageFix"/>
<feBlend mode="normal" in="SourceGraphic" in2="BackgroundImageFix" result="shape"/>
<feColorMatrix in="SourceAlpha" type="matrix" values="0 0 0 0 0 0 0 0 0 0 0 0 0 0 0 0 0 0 127 0" result="hardAlpha"/>
<feOffset dy="4"/>
<feGaussianBlur stdDeviation="2"/>
<feComposite in2="hardAlpha" operator="arithmetic" k2="-1" k3="1"/>
<feColorMatrix type="matrix" values="0 0 0 0 0 0 0 0 0 0 0 0 0 0 0 0 0 0 0.25 0"/>
<feBlend mode="normal" in2="shape" result="effect1_innerShadow"/>
</filter>
<filter id="filter17_i" x="155.744" y="67.7423" width="49.8659" height="46.2498" filterUnits="userSpaceOnUse" color-interpolation-filters="sRGB">
<feFlood flood-opacity="0" result="BackgroundImageFix"/>
<feBlend mode="normal" in="SourceGraphic" in2="BackgroundImageFix" result="shape"/>
<feColorMatrix in="SourceAlpha" type="matrix" values="0 0 0 0 0 0 0 0 0 0 0 0 0 0 0 0 0 0 127 0" result="hardAlpha"/>
<feOffset dy="4"/>
<feGaussianBlur stdDeviation="2"/>
<feComposite in2="hardAlpha" operator="arithmetic" k2="-1" k3="1"/>
<feColorMatrix type="matrix" values="0 0 0 0 0 0 0 0 0 0 0 0 0 0 0 0 0 0 0.25 0"/>
<feBlend mode="normal" in2="shape" result="effect1_innerShadow"/>
</filter>
<filter id="filter18_d" x="481.164" y="623.842" width="64.4684" height="36.4659" filterUnits="userSpaceOnUse" color-interpolation-filters="sRGB">
<feFlood flood-opacity="0" result="BackgroundImageFix"/>
<feColorMatrix in="SourceAlpha" type="matrix" values="0 0 0 0 0 0 0 0 0 0 0 0 0 0 0 0 0 0 127 0"/>
<feOffset dy="4"/>
<feGaussianBlur stdDeviation="2"/>
<feColorMatrix type="matrix" values="0 0 0 0 0 0 0 0 0 0 0 0 0 0 0 0 0 0 0.25 0"/>
<feBlend mode="normal" in2="BackgroundImageFix" result="effect1_dropShadow"/>
<feBlend mode="normal" in="SourceGraphic" in2="effect1_dropShadow" result="shape"/>
</filter>
</defs>
</svg>
